<svg width="21" height="21" viewBox="0 0 21 21" fill="none" xmlns="http://www.w3.org/2000/svg">
<g clip-path="url(#clip0_1_532)">
<path d="M17.5671 11.054H3.39C1.51714 11.054 0 9.53682 0 7.66396V1.42396C0 0.935389 0.402857 0.532532 0.891429 0.532532H20.1086C20.5971 0.532532 21 0.935389 21 1.42396V7.66396C20.9571 9.53682 19.44 11.054 17.5671 11.054ZM1.74 2.31539V7.66396C1.74 8.55539 2.49857 9.31396 3.39 9.31396H17.5671C18.4586 9.31396 19.2171 8.55539 19.2171 7.66396V2.31539H1.74Z" fill="#888888"/>
<path d="M16.5428 7.2654H4.41426C3.92568 7.2654 3.52283 6.86254 3.52283 6.37397C3.52283 5.8854 3.9214 5.48254 4.41426 5.48254H16.5428C17.0314 5.48254 17.4343 5.8854 17.4343 6.37397C17.4343 6.86254 17.0314 7.2654 16.5428 7.2654Z" fill="#888888"/>
<path d="M5.12569 20.4611C4.63712 20.3711 4.36712 19.8825 4.45712 19.4368C4.67997 18.4554 4.45712 17.9668 4.1914 17.3411C3.87854 16.5825 3.47997 15.6011 4.1914 14.1311C4.41426 13.6854 4.90283 13.5054 5.34854 13.7282C5.79426 13.9511 5.97426 14.4396 5.7514 14.8854C5.39569 15.6439 5.52854 15.9996 5.79426 16.6682C6.05997 17.3796 6.46283 18.3182 6.14997 19.8354C6.06426 20.1954 5.72569 20.4996 5.12569 20.4611Z" fill="#888888"/>
<path d="M10.5686 20.4611C10.08 20.3711 9.80999 19.8825 9.89999 19.4368C10.1228 18.4554 9.89999 17.9668 9.63427 17.3411C9.32142 16.5825 8.92284 15.6011 9.63427 14.1311C9.85713 13.6854 10.3457 13.5054 10.7914 13.7282C11.2371 13.9511 11.4171 14.4397 11.1943 14.8854C10.8386 15.6439 10.9714 15.9997 11.2371 16.6682C11.5028 17.3797 11.9057 18.3182 11.5928 19.8354C11.5028 20.1954 11.13 20.5168 10.5686 20.4611Z" fill="#888888"/>
<path d="M16.0071 20.4611C15.5185 20.3711 15.2485 19.8825 15.3385 19.4368C15.5614 18.4554 15.3385 17.9668 15.0728 17.3411C14.76 16.5825 14.3614 15.6011 15.0728 14.1311C15.2957 13.6854 15.7842 13.5054 16.23 13.7282C16.6757 13.9511 16.8557 14.4397 16.6328 14.8854C16.2771 15.6439 16.41 15.9997 16.6757 16.6682C16.9414 17.3797 17.3442 18.3182 17.0314 19.8354C16.9414 20.1954 16.5814 20.5082 16.0071 20.4611Z" fill="#888888"/>
</g>
<defs>
<clipPath id="clip0_1_532">
<rect width="21" height="21" fill="white"/>
</clipPath>
</defs>
</svg>
