<svg width="19" height="18" viewBox="0 0 19 18" fill="none" xmlns="http://www.w3.org/2000/svg">
<g clip-path="url(#clip0_1_439)">
<path d="M18.1994 14.6255H2.31086V12.4109C2.31086 11.6356 2.94163 11.0048 3.71693 11.0048H16.0903C16.8656 11.0048 17.4964 11.6356 17.4964 12.4109C17.4964 12.7992 17.8111 13.1139 18.1994 13.1139C18.5877 13.1139 18.9024 12.7992 18.9024 12.4109C18.9024 11.4005 18.3665 10.5132 17.5643 10.0173C17.56 9.9052 17.549 9.79418 17.5315 9.68453V0.703019C17.5315 0.314754 17.2167 0 16.8285 0C16.4402 0 16.1254 0.314754 16.1254 0.703019V2.32207C15.2679 2.16179 12.3412 1.65213 9.79812 1.65213C7.28034 1.65213 4.58368 2.15139 3.75205 2.31841V0.703019C3.75205 0.314754 3.4373 0 3.04904 0C2.66073 0 2.34602 0.314754 2.34602 0.703019V9.95685C1.48697 10.4387 0.904785 11.3579 0.904785 12.4109V15.3285C0.904785 15.7168 1.21954 16.0315 1.6078 16.0315H2.31082V17.2969C2.31082 17.6852 2.62558 18 3.01384 18C3.40214 18 3.71686 17.6852 3.71686 17.2969V16.0315H16.0902V17.2969C16.0902 17.6852 16.405 18 16.7932 18C17.1815 18 17.4963 17.6852 17.4963 17.2969V16.0315H18.1993C18.5876 16.0315 18.9023 15.7167 18.9023 15.3285C18.9024 14.9402 18.5876 14.6255 18.1994 14.6255ZM3.89395 9.59878C4.01168 9.31328 4.22438 9.04672 4.52043 8.82017C5.04911 8.41553 5.76246 8.19271 6.52905 8.19271C7.29563 8.19271 8.00898 8.41553 8.53766 8.82017C8.83371 9.04672 9.04644 9.31328 9.16415 9.59878H3.89395ZM10.7837 9.59878C10.9014 9.31328 11.1141 9.04672 11.4101 8.82017C11.9388 8.41553 12.6522 8.19271 13.4188 8.19271C14.1853 8.19271 14.8987 8.41553 15.4274 8.82017C15.7234 9.04672 15.9362 9.31328 16.0539 9.59878H10.7837ZM3.75205 3.75314C3.76668 3.75093 3.7813 3.74836 3.79596 3.74516C3.82757 3.7383 6.98857 3.05821 9.79812 3.05821C12.6098 3.05821 16.0585 3.74069 16.0931 3.74759C16.1039 3.74977 16.1146 3.75071 16.1254 3.75237V7.58999C15.3745 7.07084 14.4215 6.78663 13.4187 6.78663C12.345 6.78663 11.3282 7.11228 10.5556 7.70354C10.3346 7.87268 10.1403 8.05809 9.97387 8.25644C9.80744 8.05809 9.61316 7.87268 9.39214 7.70354C8.61954 7.11225 7.60275 6.78663 6.52901 6.78663C5.49443 6.78663 4.5134 7.08971 3.75205 7.64068V3.75314Z" fill="#BBBBBB"/>
</g>
<defs>
<clipPath id="clip0_1_439">
<rect width="18" height="18" fill="white" transform="translate(0.90332)"/>
</clipPath>
</defs>
</svg>
