<svg width="17" height="18" viewBox="0 0 17 18" fill="none" xmlns="http://www.w3.org/2000/svg">
<path fill-rule="evenodd" clip-rule="evenodd" d="M10.95 1.78334V0.891671C10.95 0.399468 11.3495 0 11.8417 0C12.3339 0 12.7334 0.399468 12.7334 0.891671V1.78334C14.7031 1.78334 16.3001 3.38032 16.3001 5.35002V14.2667C16.3001 16.2364 14.7031 17.8334 12.7334 17.8334C10.1832 17.8334 6.36597 17.8334 3.81668 17.8334C1.84698 17.8334 0.25 16.2364 0.25 14.2667V5.35002C0.25 3.38032 1.84698 1.78334 3.81668 1.78334V0.891671C3.81668 0.399468 4.21615 0 4.70835 0C5.20056 0 5.60002 0.399468 5.60002 0.891671V1.78334H10.95ZM14.5167 8.91671H2.03334V14.2667C2.03334 15.2511 2.83139 16.0501 3.81668 16.0501H12.7334C13.7178 16.0501 14.5167 15.2511 14.5167 14.2667V8.91671ZM12.7334 3.56668V4.45835C12.7334 4.95056 12.3339 5.35002 11.8417 5.35002C11.3495 5.35002 10.95 4.95056 10.95 4.45835V3.56668H5.60002V4.45835C5.60002 4.95056 5.20056 5.35002 4.70835 5.35002C4.21615 5.35002 3.81668 4.95056 3.81668 4.45835V3.56668C2.83139 3.56668 2.03334 4.36473 2.03334 5.35002V7.13337H14.5167V5.35002C14.5167 4.36473 13.7178 3.56668 12.7334 3.56668Z" fill="#999999"/>
</svg>
