<svg width="230" height="13" viewBox="0 0 230 13" fill="none" xmlns="http://www.w3.org/2000/svg">
<path d="M3.03835 5.63624C3.03835 5.17885 3.15057 4.76124 3.375 4.3834C3.59943 4.00556 3.89915 3.70584 4.27415 3.48425C4.65199 3.25982 5.0696 3.1476 5.52699 3.1476C5.92472 3.1476 6.29261 3.23425 6.63068 3.40755C6.96875 3.578 7.24858 3.81238 7.47017 4.11067C7.69176 4.40897 7.8267 4.7442 7.875 5.11635H6.76705C6.71591 4.85215 6.57102 4.63624 6.33239 4.46863C6.09659 4.29817 5.82813 4.21295 5.52699 4.21295C5.26563 4.21295 5.02699 4.27687 4.81108 4.40471C4.59517 4.53255 4.4233 4.70442 4.29545 4.92033C4.16761 5.1334 4.10369 5.37204 4.10369 5.63624C4.10369 5.89761 4.16761 6.13624 4.29545 6.35215C4.4233 6.56806 4.59517 6.73993 4.81108 6.86778C5.02699 6.99562 5.26563 7.05954 5.52699 7.05954C5.82813 7.05954 6.08523 6.97573 6.2983 6.80812C6.51136 6.63766 6.64489 6.42033 6.69886 6.15613H7.80682C7.75852 6.52829 7.62926 6.86351 7.41903 7.16181C7.20881 7.46011 6.94034 7.6959 6.61364 7.8692C6.28693 8.03965 5.92472 8.12488 5.52699 8.12488C5.0696 8.12488 4.65199 8.01408 4.27415 7.79249C3.89915 7.56806 3.59943 7.26692 3.375 6.88908C3.15057 6.51124 3.03835 6.09363 3.03835 5.63624ZM5.48864 10.1362C4.86932 10.1362 4.28693 10.0198 3.74148 9.78681C3.19886 9.55386 2.72017 9.23141 2.3054 8.81948C1.89347 8.40471 1.5696 7.92601 1.33381 7.3834C1.10085 6.84079 0.985795 6.2584 0.988636 5.63624C0.991477 5.01408 1.10938 4.4317 1.34233 3.88908C1.57813 3.34647 1.90199 2.8692 2.31392 2.45726C2.72585 2.04249 3.20313 1.71863 3.74574 1.48567C4.28835 1.25272 4.86932 1.13624 5.48864 1.13624C6.1108 1.13624 6.69318 1.25272 7.2358 1.48567C7.78125 1.71863 8.25852 2.04249 8.66761 2.45726C9.07955 2.8692 9.40199 3.34647 9.63494 3.88908C9.8679 4.4317 9.9858 5.01408 9.98864 5.63624C9.99148 6.2584 9.87642 6.84079 9.64347 7.3834C9.41051 7.92601 9.08807 8.40471 8.67614 8.81948C8.2642 9.23141 7.78551 9.55386 7.24006 9.78681C6.6946 10.0198 6.1108 10.1362 5.48864 10.1362ZM5.48864 9.00272C5.95455 9.00272 6.39205 8.91607 6.80114 8.74278C7.21023 8.56948 7.56818 8.32942 7.875 8.02261C8.18466 7.71295 8.42614 7.35499 8.59943 6.94874C8.77273 6.53965 8.85795 6.10357 8.85511 5.6405C8.85511 5.17459 8.76705 4.73709 8.59091 4.328C8.41761 3.91891 8.17614 3.56096 7.86648 3.25414C7.55966 2.94448 7.20312 2.703 6.79688 2.52971C6.39062 2.35641 5.95455 2.26976 5.48864 2.26976C5.02557 2.26976 4.59091 2.35641 4.18466 2.52971C3.77841 2.703 3.42045 2.94448 3.1108 3.25414C2.80398 3.5638 2.5625 3.92317 2.38636 4.33226C2.21023 4.73851 2.12216 5.17459 2.12216 5.6405C2.11932 6.10073 2.20455 6.53539 2.37784 6.94448C2.55398 7.35073 2.79545 7.70868 3.10227 8.01834C3.41193 8.32516 3.76989 8.56664 4.17614 8.74278C4.58523 8.91607 5.02273 9.00272 5.48864 9.00272ZM14.9957 9.99988V9.04533L17.9489 5.98567C18.2642 5.65329 18.5241 5.36209 18.7287 5.11209C18.9361 4.85925 19.0909 4.6192 19.1932 4.39192C19.2955 4.16465 19.3466 3.92317 19.3466 3.66749C19.3466 3.37772 19.2784 3.12772 19.142 2.91749C19.0057 2.70442 18.8196 2.54107 18.5838 2.42743C18.348 2.31096 18.0824 2.25272 17.7869 2.25272C17.4744 2.25272 17.2017 2.31664 16.9688 2.44448C16.7358 2.57232 16.5568 2.75272 16.4318 2.98567C16.3068 3.21863 16.2443 3.49135 16.2443 3.80385H14.9872C14.9872 3.2726 15.1094 2.80812 15.3537 2.41039C15.598 2.01266 15.9332 1.70442 16.3594 1.48567C16.7855 1.26408 17.2699 1.15329 17.8125 1.15329C18.3608 1.15329 18.8438 1.26266 19.2614 1.48141C19.6818 1.69732 20.0099 1.99278 20.2457 2.36778C20.4815 2.73993 20.5994 3.16039 20.5994 3.62914C20.5994 3.953 20.5384 4.26976 20.4162 4.57942C20.2969 4.88908 20.0881 5.23425 19.7898 5.61493C19.4915 5.99278 19.0767 6.45158 18.5455 6.99135L16.8111 8.8067V8.87062H20.7401V9.99988H14.9957ZM25.3935 10.1448C24.7202 10.1419 24.1449 9.96437 23.6676 9.61209C23.1903 9.25982 22.8253 8.74704 22.5724 8.07374C22.3196 7.40045 22.1932 6.58937 22.1932 5.6405C22.1932 4.69448 22.3196 3.88624 22.5724 3.21579C22.8281 2.54533 23.1946 2.03397 23.6719 1.6817C24.152 1.32942 24.7259 1.15329 25.3935 1.15329C26.0611 1.15329 26.6335 1.33084 27.1108 1.68596C27.5881 2.03823 27.9531 2.54959 28.206 3.22005C28.4616 3.88766 28.5895 4.69448 28.5895 5.6405C28.5895 6.59221 28.4631 7.40471 28.2102 8.078C27.9574 8.74846 27.5923 9.26124 27.1151 9.61636C26.6378 9.96863 26.0639 10.1448 25.3935 10.1448ZM25.3935 9.00698C25.9844 9.00698 26.446 8.71863 26.7784 8.14192C27.1136 7.56522 27.2812 6.73141 27.2812 5.6405C27.2812 4.91607 27.2045 4.30385 27.0511 3.80385C26.9006 3.30101 26.6832 2.92033 26.3991 2.66181C26.1179 2.40045 25.7827 2.26976 25.3935 2.26976C24.8054 2.26976 24.3438 2.55954 24.0085 3.13908C23.6733 3.71863 23.5043 4.55243 23.5014 5.6405C23.5014 6.36778 23.5767 6.98283 23.7273 7.48567C23.8807 7.98567 24.098 8.36493 24.3793 8.62346C24.6605 8.87914 24.9986 9.00698 25.3935 9.00698ZM30.1012 9.99988V9.04533L33.0543 5.98567C33.3697 5.65329 33.6296 5.36209 33.8342 5.11209C34.0415 4.85925 34.1964 4.6192 34.2987 4.39192C34.4009 4.16465 34.4521 3.92317 34.4521 3.66749C34.4521 3.37772 34.3839 3.12772 34.2475 2.91749C34.1112 2.70442 33.9251 2.54107 33.6893 2.42743C33.4535 2.31096 33.1879 2.25272 32.8924 2.25272C32.5799 2.25272 32.3072 2.31664 32.0742 2.44448C31.8413 2.57232 31.6623 2.75272 31.5373 2.98567C31.4123 3.21863 31.3498 3.49135 31.3498 3.80385H30.0927C30.0927 3.2726 30.2148 2.80812 30.4592 2.41039C30.7035 2.01266 31.0387 1.70442 31.4648 1.48567C31.891 1.26408 32.3754 1.15329 32.918 1.15329C33.4663 1.15329 33.9492 1.26266 34.3668 1.48141C34.7873 1.69732 35.1154 1.99278 35.3512 2.36778C35.587 2.73993 35.7049 3.16039 35.7049 3.62914C35.7049 3.953 35.6438 4.26976 35.5217 4.57942C35.4023 4.88908 35.1935 5.23425 34.8952 5.61493C34.5969 5.99278 34.1822 6.45158 33.6509 6.99135L31.9165 8.8067V8.87062H35.8455V9.99988H30.1012ZM40.7717 1.2726V9.99988H39.4506V2.59363H39.3995L37.3114 3.95726V2.6959L39.489 1.2726H40.7717ZM51.1875 3.56522C51.142 3.16181 50.9545 2.84931 50.625 2.62772C50.2955 2.40329 49.8807 2.29107 49.3807 2.29107C49.0227 2.29107 48.7131 2.34789 48.4517 2.46153C48.1903 2.57232 47.9872 2.72573 47.8423 2.92175C47.7003 3.11493 47.6293 3.3351 47.6293 3.58226C47.6293 3.78965 47.6776 3.96863 47.7741 4.1192C47.8736 4.26976 48.0028 4.39618 48.1619 4.49846C48.3239 4.59789 48.4972 4.6817 48.6818 4.74988C48.8665 4.81522 49.044 4.8692 49.2145 4.91181L50.0668 5.1334C50.3452 5.20158 50.6307 5.29391 50.9233 5.41039C51.2159 5.52687 51.4872 5.68028 51.7372 5.87062C51.9872 6.06096 52.1889 6.29675 52.3423 6.578C52.4986 6.85925 52.5767 7.1959 52.5767 7.58795C52.5767 8.08226 52.4489 8.52118 52.1932 8.90471C51.9403 9.28823 51.5724 9.59079 51.0895 9.81238C50.6094 10.034 50.0284 10.1448 49.3466 10.1448C48.6932 10.1448 48.1278 10.0411 47.6506 9.83368C47.1733 9.6263 46.7997 9.33226 46.5298 8.95158C46.2599 8.56806 46.1108 8.11351 46.0824 7.58795H47.4034C47.429 7.90329 47.5313 8.16607 47.7102 8.3763C47.892 8.58368 48.1236 8.73851 48.4048 8.84079C48.6889 8.94022 49 8.98993 49.3381 8.98993C49.7102 8.98993 50.0412 8.9317 50.331 8.81522C50.6236 8.6959 50.8537 8.53113 51.0213 8.3209C51.1889 8.10783 51.2727 7.85925 51.2727 7.57516C51.2727 7.31664 51.1989 7.10499 51.0511 6.94022C50.9063 6.77545 50.7088 6.63908 50.4588 6.53113C50.2116 6.42317 49.9318 6.328 49.6193 6.24562L48.5881 5.96437C47.8892 5.77403 47.3352 5.4942 46.9261 5.12488C46.5199 4.75556 46.3168 4.26692 46.3168 3.65897C46.3168 3.15613 46.4531 2.71721 46.7259 2.34221C46.9986 1.96721 47.3679 1.67601 47.8338 1.46863C48.2997 1.2584 48.8253 1.15329 49.4105 1.15329C50.0014 1.15329 50.5227 1.25698 50.9744 1.46437C51.429 1.67175 51.7869 1.95726 52.0483 2.3209C52.3097 2.6817 52.446 3.09647 52.4574 3.56522H51.1875ZM55.9528 10.1448C55.538 10.1448 55.163 10.0681 54.8278 9.91465C54.4925 9.7584 54.2269 9.53255 54.0309 9.23709C53.8377 8.94164 53.7411 8.57942 53.7411 8.15045C53.7411 7.78113 53.8121 7.47715 53.9542 7.23851C54.0962 6.99988 54.288 6.81096 54.5295 6.67175C54.771 6.53255 55.0408 6.42743 55.3391 6.35641C55.6374 6.28539 55.9414 6.23141 56.2511 6.19448C56.6431 6.14903 56.9613 6.11209 57.2056 6.08368C57.4499 6.05243 57.6275 6.00272 57.7383 5.93454C57.8491 5.86636 57.9045 5.75556 57.9045 5.60215V5.57232C57.9045 5.20016 57.7994 4.91181 57.5891 4.70726C57.3817 4.50272 57.0721 4.40045 56.6602 4.40045C56.2312 4.40045 55.8931 4.49562 55.646 4.68596C55.4016 4.87346 55.2326 5.08226 55.1388 5.31238L53.9414 5.03965C54.0835 4.64192 54.2908 4.3209 54.5636 4.07658C54.8391 3.82942 55.1559 3.65045 55.5138 3.53965C55.8718 3.42601 56.2482 3.3692 56.6431 3.3692C56.9045 3.3692 57.1815 3.40045 57.4741 3.46295C57.7695 3.52261 58.0451 3.6334 58.3008 3.79533C58.5593 3.95726 58.771 4.1888 58.9357 4.48993C59.1005 4.78823 59.1829 5.17601 59.1829 5.65329V9.99988H57.9386V9.10499H57.8874C57.805 9.26976 57.6815 9.4317 57.5167 9.59079C57.3519 9.74988 57.1403 9.88198 56.8817 9.98709C56.6232 10.0922 56.3136 10.1448 55.9528 10.1448ZM56.2298 9.12204C56.582 9.12204 56.8832 9.05243 57.1332 8.91323C57.386 8.77403 57.5778 8.59221 57.7085 8.36778C57.842 8.1405 57.9087 7.89761 57.9087 7.63908V6.79533C57.8633 6.84079 57.7752 6.8834 57.6445 6.92317C57.5167 6.96011 57.3704 6.99278 57.2056 7.02118C57.0408 7.04675 56.8803 7.0709 56.7241 7.09363C56.5678 7.11351 56.4371 7.13056 56.332 7.14476C56.0849 7.17601 55.859 7.22857 55.6545 7.30243C55.4528 7.3763 55.2908 7.48283 55.1687 7.62204C55.0494 7.7584 54.9897 7.94022 54.9897 8.16749C54.9897 8.48283 55.1062 8.72147 55.3391 8.8834C55.5721 9.04249 55.869 9.12204 56.2298 9.12204ZM63.995 3.45442V4.47715H60.2962V3.45442H63.995ZM61.3104 9.99988V2.6959C61.3104 2.28681 61.3999 1.94732 61.5788 1.67743C61.7578 1.40471 61.995 1.20158 62.2905 1.06806C62.5859 0.931696 62.907 0.863514 63.2536 0.863514C63.5092 0.863514 63.728 0.884821 63.9098 0.927435C64.0916 0.967207 64.2266 1.00414 64.3146 1.03823L64.0163 2.06948C63.9567 2.05243 63.88 2.03255 63.7862 2.00982C63.6925 1.98425 63.5788 1.97147 63.4453 1.97147C63.1357 1.97147 62.9141 2.04817 62.7805 2.20158C62.6499 2.35499 62.5845 2.57658 62.5845 2.86635V9.99988H61.3104ZM68.4247 3.45442V4.47715H64.7259V3.45442H68.4247ZM65.7401 9.99988V2.6959C65.7401 2.28681 65.8295 1.94732 66.0085 1.67743C66.1875 1.40471 66.4247 1.20158 66.7202 1.06806C67.0156 0.931696 67.3366 0.863514 67.6832 0.863514C67.9389 0.863514 68.1577 0.884821 68.3395 0.927435C68.5213 0.967207 68.6562 1.00414 68.7443 1.03823L68.446 2.06948C68.3864 2.05243 68.3097 2.03255 68.2159 2.00982C68.1222 1.98425 68.0085 1.97147 67.875 1.97147C67.5653 1.97147 67.3438 2.04817 67.2102 2.20158C67.0795 2.35499 67.0142 2.57658 67.0142 2.86635V9.99988H65.7401ZM69.7393 9.99988V3.45442H70.9709V4.4942H71.0391C71.1584 4.14192 71.3686 3.86493 71.6697 3.66323C71.9737 3.45868 72.3175 3.35641 72.701 3.35641C72.7805 3.35641 72.8743 3.35925 72.9822 3.36493C73.093 3.37062 73.1797 3.37772 73.2422 3.38624V4.60499C73.1911 4.59079 73.1001 4.57516 72.9695 4.55812C72.8388 4.53823 72.7081 4.52829 72.5774 4.52829C72.2763 4.52829 72.0078 4.59221 71.772 4.72005C71.5391 4.84505 71.3544 5.01976 71.218 5.2442C71.0817 5.46579 71.0135 5.71863 71.0135 6.00272V9.99988H69.7393ZM76.8675 10.132C76.2539 10.132 75.7184 9.99136 75.261 9.71011C74.8036 9.42886 74.4485 9.03539 74.1957 8.52971C73.9428 8.02403 73.8164 7.43312 73.8164 6.75698C73.8164 6.078 73.9428 5.48425 74.1957 4.97573C74.4485 4.46721 74.8036 4.07232 75.261 3.79107C75.7184 3.50982 76.2539 3.3692 76.8675 3.3692C77.4812 3.3692 78.0167 3.50982 78.4741 3.79107C78.9315 4.07232 79.2866 4.46721 79.5394 4.97573C79.7923 5.48425 79.9187 6.078 79.9187 6.75698C79.9187 7.43312 79.7923 8.02403 79.5394 8.52971C79.2866 9.03539 78.9315 9.42886 78.4741 9.71011C78.0167 9.99136 77.4812 10.132 76.8675 10.132ZM76.8718 9.06238C77.2695 9.06238 77.5991 8.95726 77.8604 8.74704C78.1218 8.53681 78.315 8.25698 78.44 7.90755C78.5678 7.55812 78.6317 7.17317 78.6317 6.75272C78.6317 6.33511 78.5678 5.95158 78.44 5.60215C78.315 5.24988 78.1218 4.96721 77.8604 4.75414C77.5991 4.54107 77.2695 4.43454 76.8718 4.43454C76.4712 4.43454 76.1388 4.54107 75.8746 4.75414C75.6133 4.96721 75.4187 5.24988 75.2908 5.60215C75.1658 5.95158 75.1033 6.33511 75.1033 6.75272C75.1033 7.17317 75.1658 7.55812 75.2908 7.90755C75.4187 8.25698 75.6133 8.53681 75.8746 8.74704C76.1388 8.95726 76.4712 9.06238 76.8718 9.06238ZM82.6151 6.11351V9.99988H81.3409V3.45442H82.5639V4.51976H82.6449C82.7955 4.17317 83.0313 3.89476 83.3523 3.68454C83.6761 3.47431 84.0838 3.3692 84.5753 3.3692C85.0213 3.3692 85.4119 3.46295 85.7472 3.65045C86.0824 3.83511 86.3423 4.11067 86.527 4.47715C86.7116 4.84363 86.804 5.29675 86.804 5.83653V9.99988H85.5298V5.98993C85.5298 5.5155 85.4063 5.14476 85.1591 4.87772C84.9119 4.60783 84.5724 4.47289 84.1406 4.47289C83.8452 4.47289 83.5824 4.53681 83.3523 4.66465C83.125 4.79249 82.9446 4.97999 82.8111 5.22715C82.6804 5.47147 82.6151 5.76692 82.6151 6.11351ZM93.375 3.56522C93.3295 3.16181 93.142 2.84931 92.8125 2.62772C92.483 2.40329 92.0682 2.29107 91.5682 2.29107C91.2102 2.29107 90.9006 2.34789 90.6392 2.46153C90.3778 2.57232 90.1747 2.72573 90.0298 2.92175C89.8878 3.11493 89.8168 3.3351 89.8168 3.58226C89.8168 3.78965 89.8651 3.96863 89.9616 4.1192C90.0611 4.26976 90.1903 4.39618 90.3494 4.49846C90.5114 4.59789 90.6847 4.6817 90.8693 4.74988C91.054 4.81522 91.2315 4.8692 91.402 4.91181L92.2543 5.1334C92.5327 5.20158 92.8182 5.29391 93.1108 5.41039C93.4034 5.52687 93.6747 5.68028 93.9247 5.87062C94.1747 6.06096 94.3764 6.29675 94.5298 6.578C94.6861 6.85925 94.7642 7.1959 94.7642 7.58795C94.7642 8.08226 94.6364 8.52118 94.3807 8.90471C94.1278 9.28823 93.7599 9.59079 93.277 9.81238C92.7969 10.034 92.2159 10.1448 91.5341 10.1448C90.8807 10.1448 90.3153 10.0411 89.8381 9.83368C89.3608 9.6263 88.9872 9.33226 88.7173 8.95158C88.4474 8.56806 88.2983 8.11351 88.2699 7.58795H89.5909C89.6165 7.90329 89.7188 8.16607 89.8977 8.3763C90.0795 8.58368 90.3111 8.73851 90.5923 8.84079C90.8764 8.94022 91.1875 8.98993 91.5256 8.98993C91.8977 8.98993 92.2287 8.9317 92.5185 8.81522C92.8111 8.6959 93.0412 8.53113 93.2088 8.3209C93.3764 8.10783 93.4602 7.85925 93.4602 7.57516C93.4602 7.31664 93.3864 7.10499 93.2386 6.94022C93.0938 6.77545 92.8963 6.63908 92.6463 6.53113C92.3991 6.42317 92.1193 6.328 91.8068 6.24562L90.7756 5.96437C90.0767 5.77403 89.5227 5.4942 89.1136 5.12488C88.7074 4.75556 88.5043 4.26692 88.5043 3.65897C88.5043 3.15613 88.6406 2.71721 88.9134 2.34221C89.1861 1.96721 89.5554 1.67601 90.0213 1.46863C90.4872 1.2584 91.0128 1.15329 91.598 1.15329C92.1889 1.15329 92.7102 1.25698 93.1619 1.46437C93.6165 1.67175 93.9744 1.95726 94.2358 2.3209C94.4972 2.6817 94.6335 3.09647 94.6449 3.56522H93.375ZM99.2908 3.45442V4.47715H95.7156V3.45442H99.2908ZM96.6744 1.88624H97.9485V8.078C97.9485 8.32516 97.9854 8.51124 98.0593 8.63624C98.1332 8.7584 98.2283 8.84221 98.3448 8.88766C98.4641 8.93028 98.5934 8.95158 98.7326 8.95158C98.8349 8.95158 98.9244 8.94448 99.0011 8.93028C99.0778 8.91607 99.1374 8.90471 99.18 8.89618L99.4102 9.94874C99.3363 9.97715 99.2312 10.0056 99.0948 10.034C98.9585 10.0652 98.788 10.0823 98.5835 10.0851C98.2482 10.0908 97.9357 10.0311 97.646 9.90613C97.3562 9.78113 97.1218 9.58795 96.9428 9.32658C96.7638 9.06522 96.6744 8.73709 96.6744 8.34221V1.88624ZM102.605 10.1448C102.19 10.1448 101.815 10.0681 101.48 9.91465C101.145 9.7584 100.879 9.53255 100.683 9.23709C100.49 8.94164 100.393 8.57942 100.393 8.15045C100.393 7.78113 100.464 7.47715 100.607 7.23851C100.749 6.99988 100.94 6.81096 101.182 6.67175C101.423 6.53255 101.693 6.42743 101.991 6.35641C102.29 6.28539 102.594 6.23141 102.903 6.19448C103.295 6.14903 103.614 6.11209 103.858 6.08368C104.102 6.05243 104.28 6.00272 104.391 5.93454C104.501 5.86636 104.557 5.75556 104.557 5.60215V5.57232C104.557 5.20016 104.452 4.91181 104.241 4.70726C104.034 4.50272 103.724 4.40045 103.312 4.40045C102.884 4.40045 102.545 4.49562 102.298 4.68596C102.054 4.87346 101.885 5.08226 101.791 5.31238L100.594 5.03965C100.736 4.64192 100.943 4.3209 101.216 4.07658C101.491 3.82942 101.808 3.65045 102.166 3.53965C102.524 3.42601 102.901 3.3692 103.295 3.3692C103.557 3.3692 103.834 3.40045 104.126 3.46295C104.422 3.52261 104.697 3.6334 104.953 3.79533C105.212 3.95726 105.423 4.1888 105.588 4.48993C105.753 4.78823 105.835 5.17601 105.835 5.65329V9.99988H104.591V9.10499H104.54C104.457 9.26976 104.334 9.4317 104.169 9.59079C104.004 9.74988 103.793 9.88198 103.534 9.98709C103.276 10.0922 102.966 10.1448 102.605 10.1448ZM102.882 9.12204C103.234 9.12204 103.536 9.05243 103.786 8.91323C104.038 8.77403 104.23 8.59221 104.361 8.36778C104.494 8.1405 104.561 7.89761 104.561 7.63908V6.79533C104.516 6.84079 104.428 6.8834 104.297 6.92317C104.169 6.96011 104.023 6.99278 103.858 7.02118C103.693 7.04675 103.533 7.0709 103.376 7.09363C103.22 7.11351 103.089 7.13056 102.984 7.14476C102.737 7.17601 102.511 7.22857 102.307 7.30243C102.105 7.3763 101.943 7.48283 101.821 7.62204C101.702 7.7584 101.642 7.94022 101.642 8.16749C101.642 8.48283 101.759 8.72147 101.991 8.8834C102.224 9.04249 102.521 9.12204 102.882 9.12204ZM108.103 12.4544C107.913 12.4544 107.74 12.4388 107.583 12.4075C107.427 12.3791 107.311 12.3479 107.234 12.3138L107.541 11.2698C107.774 11.3323 107.981 11.3593 108.163 11.3507C108.345 11.3422 108.505 11.274 108.645 11.1462C108.787 11.0183 108.912 10.8095 109.02 10.5198L109.177 10.0851L106.782 3.45442H108.146L109.804 8.53397H109.872L111.529 3.45442H112.897L110.2 10.8735C110.075 11.2144 109.916 11.5027 109.723 11.7385C109.529 11.9772 109.299 12.1561 109.032 12.2754C108.765 12.3948 108.456 12.4544 108.103 12.4544ZM119 5.05243L117.845 5.25698C117.797 5.10925 117.72 4.96863 117.615 4.8351C117.512 4.70158 117.373 4.59221 117.197 4.50698C117.021 4.42175 116.801 4.37914 116.537 4.37914C116.176 4.37914 115.875 4.4601 115.633 4.62204C115.392 4.78113 115.271 4.98709 115.271 5.23993C115.271 5.45868 115.352 5.63482 115.514 5.76834C115.676 5.90187 115.937 6.01124 116.298 6.09647L117.338 6.3351C117.94 6.47431 118.389 6.6888 118.684 6.97857C118.98 7.26834 119.127 7.64476 119.127 8.10783C119.127 8.49988 119.014 8.84931 118.787 9.15613C118.562 9.46011 118.248 9.69874 117.845 9.87204C117.444 10.0453 116.98 10.132 116.451 10.132C115.718 10.132 115.12 9.97573 114.657 9.66323C114.194 9.34789 113.91 8.90045 113.805 8.3209L115.037 8.1334C115.113 8.45442 115.271 8.69732 115.51 8.86209C115.748 9.02403 116.059 9.10499 116.443 9.10499C116.86 9.10499 117.194 9.01834 117.444 8.84505C117.694 8.66891 117.819 8.45442 117.819 8.20158C117.819 7.99704 117.743 7.82516 117.589 7.68596C117.439 7.54675 117.207 7.44164 116.895 7.37062L115.787 7.12772C115.176 6.98851 114.724 6.76692 114.431 6.46295C114.142 6.15897 113.997 5.77403 113.997 5.30812C113.997 4.92175 114.105 4.58368 114.321 4.29391C114.537 4.00414 114.835 3.77829 115.216 3.61635C115.596 3.45158 116.032 3.3692 116.524 3.3692C117.231 3.3692 117.788 3.52261 118.194 3.82942C118.6 4.1334 118.869 4.54107 119 5.05243ZM121.368 10.0808C121.135 10.0808 120.935 9.99846 120.767 9.83368C120.599 9.66607 120.516 9.46437 120.516 9.22857C120.516 8.99562 120.599 8.79675 120.767 8.63198C120.935 8.46437 121.135 8.38056 121.368 8.38056C121.601 8.38056 121.801 8.46437 121.969 8.63198C122.136 8.79675 122.22 8.99562 122.22 9.22857C122.22 9.38482 122.18 9.52829 122.101 9.65897C122.024 9.78681 121.922 9.88908 121.794 9.96579C121.666 10.0425 121.524 10.0808 121.368 10.0808ZM127.801 9.99988H126.404L129.544 1.2726H131.066L134.206 9.99988H132.809L130.341 2.85783H130.273L127.801 9.99988ZM128.036 6.58226H132.57V7.69022H128.036V6.58226ZM136.638 1.2726V9.99988H135.364V1.2726H136.638ZM139.627 1.2726V9.99988H138.353V1.2726H139.627ZM144.517 9.99988V3.45442H145.748V4.4942H145.816C145.936 4.14192 146.146 3.86493 146.447 3.66323C146.751 3.45868 147.095 3.35641 147.478 3.35641C147.558 3.35641 147.652 3.35925 147.76 3.36493C147.87 3.37062 147.957 3.37772 148.02 3.38624V4.60499C147.968 4.59079 147.877 4.57516 147.747 4.55812C147.616 4.53823 147.485 4.52829 147.355 4.52829C147.054 4.52829 146.785 4.59221 146.549 4.72005C146.316 4.84505 146.132 5.01976 145.995 5.2442C145.859 5.46579 145.791 5.71863 145.791 6.00272V9.99988H144.517ZM149.122 9.99988V3.45442H150.396V9.99988H149.122ZM149.766 2.44448C149.544 2.44448 149.354 2.37062 149.195 2.22289C149.038 2.07232 148.96 1.89334 148.96 1.68596C148.96 1.47573 149.038 1.29675 149.195 1.14903C149.354 0.998457 149.544 0.923173 149.766 0.923173C149.987 0.923173 150.176 0.998457 150.332 1.14903C150.491 1.29675 150.571 1.47573 150.571 1.68596C150.571 1.89334 150.491 2.07232 150.332 2.22289C150.176 2.37062 149.987 2.44448 149.766 2.44448ZM154.855 12.5908C154.335 12.5908 153.887 12.5226 153.512 12.3862C153.14 12.2499 152.836 12.0695 152.6 11.845C152.365 11.6206 152.189 11.3749 152.072 11.1078L153.167 10.6561C153.244 10.7811 153.346 10.9132 153.474 11.0524C153.605 11.1945 153.781 11.3152 154.002 11.4147C154.227 11.5141 154.515 11.5638 154.868 11.5638C155.35 11.5638 155.75 11.4459 156.065 11.2101C156.38 10.9772 156.538 10.605 156.538 10.0936V8.8067H156.457C156.38 8.9459 156.27 9.10073 156.125 9.27118C155.983 9.44164 155.787 9.58937 155.537 9.71437C155.287 9.83937 154.961 9.90187 154.561 9.90187C154.044 9.90187 153.578 9.78113 153.163 9.53965C152.751 9.29533 152.424 8.93596 152.183 8.46153C151.944 7.98425 151.825 7.39761 151.825 6.70158C151.825 6.00556 151.943 5.40897 152.179 4.91181C152.417 4.41465 152.744 4.03397 153.159 3.76976C153.574 3.50272 154.044 3.3692 154.569 3.3692C154.975 3.3692 155.304 3.43738 155.554 3.57374C155.804 3.70726 155.998 3.86351 156.137 4.04249C156.279 4.22147 156.389 4.37914 156.466 4.5155H156.559V3.45442H157.808V10.1448C157.808 10.7073 157.677 11.1689 157.416 11.5297C157.154 11.8905 156.801 12.1575 156.355 12.3308C155.912 12.5041 155.412 12.5908 154.855 12.5908ZM154.842 8.84505C155.208 8.84505 155.518 8.75982 155.771 8.58937C156.027 8.41607 156.22 8.16891 156.35 7.84789C156.484 7.52403 156.551 7.13624 156.551 6.68454C156.551 6.2442 156.485 5.85641 156.355 5.52118C156.224 5.18596 156.032 4.92459 155.779 4.73709C155.527 4.54675 155.214 4.45158 154.842 4.45158C154.458 4.45158 154.139 4.55101 153.883 4.74988C153.627 4.9459 153.434 5.21295 153.304 5.55101C153.176 5.88908 153.112 6.26692 153.112 6.68454C153.112 7.11351 153.177 7.48993 153.308 7.8138C153.439 8.13766 153.632 8.3905 153.887 8.57232C154.146 8.75414 154.464 8.84505 154.842 8.84505ZM160.791 6.11351V9.99988H159.517V1.2726H160.774V4.51976H160.855C161.008 4.16749 161.243 3.88766 161.558 3.68028C161.873 3.47289 162.285 3.3692 162.794 3.3692C163.243 3.3692 163.635 3.46153 163.97 3.64618C164.308 3.83084 164.569 4.10641 164.754 4.47289C164.941 4.83653 165.035 5.29107 165.035 5.83653V9.99988H163.761V5.98993C163.761 5.50982 163.637 5.13766 163.39 4.87346C163.143 4.60641 162.799 4.47289 162.359 4.47289C162.058 4.47289 161.788 4.53681 161.549 4.66465C161.314 4.79249 161.127 4.97999 160.991 5.22715C160.858 5.47147 160.791 5.76692 160.791 6.11351ZM169.791 3.45442V4.47715H166.216V3.45442H169.791ZM167.174 1.88624H168.449V8.078C168.449 8.32516 168.485 8.51124 168.559 8.63624C168.633 8.7584 168.728 8.84221 168.845 8.88766C168.964 8.93028 169.093 8.95158 169.233 8.95158C169.335 8.95158 169.424 8.94448 169.501 8.93028C169.578 8.91607 169.637 8.90471 169.68 8.89618L169.91 9.94874C169.836 9.97715 169.731 10.0056 169.595 10.034C169.458 10.0652 169.288 10.0823 169.083 10.0851C168.748 10.0908 168.436 10.0311 168.146 9.90613C167.856 9.78113 167.622 9.58795 167.443 9.32658C167.264 9.06522 167.174 8.73709 167.174 8.34221V1.88624ZM176 5.05243L174.845 5.25698C174.797 5.10925 174.72 4.96863 174.615 4.8351C174.512 4.70158 174.373 4.59221 174.197 4.50698C174.021 4.42175 173.801 4.37914 173.537 4.37914C173.176 4.37914 172.875 4.4601 172.633 4.62204C172.392 4.78113 172.271 4.98709 172.271 5.23993C172.271 5.45868 172.352 5.63482 172.514 5.76834C172.676 5.90187 172.937 6.01124 173.298 6.09647L174.338 6.3351C174.94 6.47431 175.389 6.6888 175.684 6.97857C175.98 7.26834 176.127 7.64476 176.127 8.10783C176.127 8.49988 176.014 8.84931 175.787 9.15613C175.562 9.46011 175.248 9.69874 174.845 9.87204C174.444 10.0453 173.98 10.132 173.451 10.132C172.718 10.132 172.12 9.97573 171.657 9.66323C171.194 9.34789 170.91 8.90045 170.805 8.3209L172.037 8.1334C172.113 8.45442 172.271 8.69732 172.51 8.86209C172.748 9.02403 173.059 9.10499 173.443 9.10499C173.86 9.10499 174.194 9.01834 174.444 8.84505C174.694 8.66891 174.819 8.45442 174.819 8.20158C174.819 7.99704 174.743 7.82516 174.589 7.68596C174.439 7.54675 174.207 7.44164 173.895 7.37062L172.787 7.12772C172.176 6.98851 171.724 6.76692 171.431 6.46295C171.142 6.15897 170.997 5.77403 170.997 5.30812C170.997 4.92175 171.105 4.58368 171.321 4.29391C171.537 4.00414 171.835 3.77829 172.216 3.61635C172.596 3.45158 173.032 3.3692 173.524 3.3692C174.231 3.3692 174.788 3.52261 175.194 3.82942C175.6 4.1334 175.869 4.54107 176 5.05243ZM180.704 9.99988V3.45442H181.936V4.4942H182.004C182.123 4.14192 182.333 3.86493 182.635 3.66323C182.939 3.45868 183.282 3.35641 183.666 3.35641C183.745 3.35641 183.839 3.35925 183.947 3.36493C184.058 3.37062 184.145 3.37772 184.207 3.38624V4.60499C184.156 4.59079 184.065 4.57516 183.934 4.55812C183.804 4.53823 183.673 4.52829 183.542 4.52829C183.241 4.52829 182.973 4.59221 182.737 4.72005C182.504 4.84505 182.319 5.01976 182.183 5.2442C182.047 5.46579 181.978 5.71863 181.978 6.00272V9.99988H180.704ZM187.896 10.132C187.251 10.132 186.696 9.9942 186.23 9.71863C185.767 9.44022 185.409 9.04959 185.156 8.54675C184.906 8.04107 184.781 7.44874 184.781 6.76976C184.781 6.09931 184.906 5.5084 185.156 4.99704C185.409 4.48567 185.761 4.08653 186.213 3.79959C186.668 3.51266 187.199 3.3692 187.807 3.3692C188.176 3.3692 188.534 3.43028 188.881 3.55243C189.227 3.67459 189.538 3.86636 189.814 4.12772C190.089 4.38908 190.307 4.72857 190.466 5.14618C190.625 5.56096 190.705 6.06522 190.705 6.65897V7.11067H185.501V6.15613H189.456C189.456 5.8209 189.388 5.52403 189.251 5.2655C189.115 5.00414 188.923 4.79817 188.676 4.6476C188.432 4.49704 188.145 4.42175 187.815 4.42175C187.457 4.42175 187.145 4.50982 186.878 4.68596C186.614 4.85925 186.409 5.08653 186.264 5.36778C186.122 5.64618 186.051 5.94874 186.051 6.27545V7.02118C186.051 7.45868 186.128 7.83084 186.281 8.13766C186.438 8.44448 186.655 8.67886 186.933 8.84079C187.212 8.99988 187.537 9.07942 187.909 9.07942C188.151 9.07942 188.371 9.04533 188.57 8.97715C188.768 8.90613 188.94 8.80101 189.085 8.66181C189.23 8.52261 189.341 8.35073 189.418 8.14618L190.624 8.36351C190.527 8.71863 190.354 9.02971 190.104 9.29675C189.857 9.56096 189.545 9.76692 189.17 9.91465C188.798 10.0595 188.374 10.132 187.896 10.132ZM197.023 5.05243L195.868 5.25698C195.82 5.10925 195.743 4.96863 195.638 4.8351C195.536 4.70158 195.397 4.59221 195.221 4.50698C195.044 4.42175 194.824 4.37914 194.56 4.37914C194.199 4.37914 193.898 4.4601 193.657 4.62204C193.415 4.78113 193.294 4.98709 193.294 5.23993C193.294 5.45868 193.375 5.63482 193.537 5.76834C193.699 5.90187 193.961 6.01124 194.321 6.09647L195.361 6.3351C195.963 6.47431 196.412 6.6888 196.708 6.97857C197.003 7.26834 197.151 7.64476 197.151 8.10783C197.151 8.49988 197.037 8.84931 196.81 9.15613C196.586 9.46011 196.272 9.69874 195.868 9.87204C195.468 10.0453 195.003 10.132 194.475 10.132C193.742 10.132 193.144 9.97573 192.681 9.66323C192.218 9.34789 191.934 8.90045 191.828 8.3209L193.06 8.1334C193.137 8.45442 193.294 8.69732 193.533 8.86209C193.772 9.02403 194.083 9.10499 194.466 9.10499C194.884 9.10499 195.218 9.01834 195.468 8.84505C195.718 8.66891 195.843 8.45442 195.843 8.20158C195.843 7.99704 195.766 7.82516 195.613 7.68596C195.462 7.54675 195.23 7.44164 194.918 7.37062L193.81 7.12772C193.199 6.98851 192.748 6.76692 192.455 6.46295C192.165 6.15897 192.02 5.77403 192.02 5.30812C192.02 4.92175 192.128 4.58368 192.344 4.29391C192.56 4.00414 192.858 3.77829 193.239 3.61635C193.62 3.45158 194.056 3.3692 194.547 3.3692C195.255 3.3692 195.811 3.52261 196.218 3.82942C196.624 4.1334 196.892 4.54107 197.023 5.05243ZM201.373 10.132C200.728 10.132 200.173 9.9942 199.707 9.71863C199.244 9.44022 198.886 9.04959 198.633 8.54675C198.383 8.04107 198.258 7.44874 198.258 6.76976C198.258 6.09931 198.383 5.5084 198.633 4.99704C198.886 4.48567 199.238 4.08653 199.69 3.79959C200.144 3.51266 200.675 3.3692 201.283 3.3692C201.653 3.3692 202.011 3.43028 202.357 3.55243C202.704 3.67459 203.015 3.86636 203.29 4.12772C203.566 4.38908 203.783 4.72857 203.942 5.14618C204.102 5.56096 204.181 6.06522 204.181 6.65897V7.11067H198.978V6.15613H202.933C202.933 5.8209 202.864 5.52403 202.728 5.2655C202.592 5.00414 202.4 4.79817 202.153 4.6476C201.908 4.49704 201.621 4.42175 201.292 4.42175C200.934 4.42175 200.621 4.50982 200.354 4.68596C200.09 4.85925 199.886 5.08653 199.741 5.36778C199.599 5.64618 199.528 5.94874 199.528 6.27545V7.02118C199.528 7.45868 199.604 7.83084 199.758 8.13766C199.914 8.44448 200.131 8.67886 200.41 8.84079C200.688 8.99988 201.013 9.07942 201.386 9.07942C201.627 9.07942 201.847 9.04533 202.046 8.97715C202.245 8.90613 202.417 8.80101 202.562 8.66181C202.707 8.52261 202.817 8.35073 202.894 8.14618L204.1 8.36351C204.004 8.71863 203.83 9.02971 203.58 9.29675C203.333 9.56096 203.022 9.76692 202.647 9.91465C202.275 10.0595 201.85 10.132 201.373 10.132ZM205.595 9.99988V3.45442H206.826V4.4942H206.895C207.014 4.14192 207.224 3.86493 207.525 3.66323C207.829 3.45868 208.173 3.35641 208.556 3.35641C208.636 3.35641 208.73 3.35925 208.838 3.36493C208.949 3.37062 209.035 3.37772 209.098 3.38624V4.60499C209.047 4.59079 208.956 4.57516 208.825 4.55812C208.694 4.53823 208.564 4.52829 208.433 4.52829C208.132 4.52829 207.863 4.59221 207.627 4.72005C207.395 4.84505 207.21 5.01976 207.074 5.2442C206.937 5.46579 206.869 5.71863 206.869 6.00272V9.99988H205.595ZM215.999 3.45442L213.625 9.99988H212.262L209.884 3.45442H211.252L212.909 8.49136H212.978L214.631 3.45442H215.999ZM219.795 10.132C219.15 10.132 218.594 9.9942 218.129 9.71863C217.665 9.44022 217.308 9.04959 217.055 8.54675C216.805 8.04107 216.68 7.44874 216.68 6.76976C216.68 6.09931 216.805 5.5084 217.055 4.99704C217.308 4.48567 217.66 4.08653 218.112 3.79959C218.566 3.51266 219.097 3.3692 219.705 3.3692C220.075 3.3692 220.433 3.43028 220.779 3.55243C221.126 3.67459 221.437 3.86636 221.712 4.12772C221.988 4.38908 222.205 4.72857 222.364 5.14618C222.523 5.56096 222.603 6.06522 222.603 6.65897V7.11067H217.4V6.15613H221.354C221.354 5.8209 221.286 5.52403 221.15 5.2655C221.013 5.00414 220.822 4.79817 220.575 4.6476C220.33 4.49704 220.043 4.42175 219.714 4.42175C219.356 4.42175 219.043 4.50982 218.776 4.68596C218.512 4.85925 218.308 5.08653 218.163 5.36778C218.021 5.64618 217.95 5.94874 217.95 6.27545V7.02118C217.95 7.45868 218.026 7.83084 218.18 8.13766C218.336 8.44448 218.553 8.67886 218.832 8.84079C219.11 8.99988 219.435 9.07942 219.808 9.07942C220.049 9.07942 220.269 9.04533 220.468 8.97715C220.667 8.90613 220.839 8.80101 220.984 8.66181C221.129 8.52261 221.239 8.35073 221.316 8.14618L222.522 8.36351C222.425 8.71863 222.252 9.02971 222.002 9.29675C221.755 9.56096 221.444 9.76692 221.069 9.91465C220.697 10.0595 220.272 10.132 219.795 10.132ZM226.467 10.1277C225.939 10.1277 225.467 9.99278 225.052 9.72289C224.64 9.45016 224.316 9.06238 224.081 8.55954C223.848 8.05386 223.731 7.44732 223.731 6.73993C223.731 6.03255 223.849 5.42743 224.085 4.92459C224.324 4.42175 224.65 4.03681 225.065 3.76976C225.48 3.50272 225.95 3.3692 226.475 3.3692C226.882 3.3692 227.208 3.43738 227.456 3.57374C227.706 3.70726 227.899 3.86351 228.035 4.04249C228.174 4.22147 228.282 4.37914 228.359 4.5155H228.436V1.2726H229.71V9.99988H228.466V8.98141H228.359C228.282 9.12062 228.172 9.27971 228.027 9.45868C227.885 9.63766 227.689 9.79391 227.439 9.92743C227.189 10.061 226.865 10.1277 226.467 10.1277ZM226.748 9.04107C227.115 9.04107 227.424 8.94448 227.677 8.7513C227.933 8.55528 228.126 8.28397 228.257 7.93738C228.39 7.59079 228.457 7.18738 228.457 6.72715C228.457 6.27261 228.392 5.87488 228.261 5.53397C228.13 5.19306 227.939 4.92743 227.686 4.73709C227.433 4.54675 227.12 4.45158 226.748 4.45158C226.365 4.45158 226.045 4.55101 225.789 4.74988C225.534 4.94874 225.341 5.22005 225.21 5.5638C225.082 5.90755 225.018 6.29533 225.018 6.72715C225.018 7.16465 225.083 7.55812 225.214 7.90755C225.345 8.25698 225.538 8.53397 225.794 8.73851C226.052 8.94022 226.37 9.04107 226.748 9.04107Z" fill="white" fill-opacity="0.6"/>
</svg>
