<svg width="143" height="34" viewBox="0 0 143 34" fill="none" xmlns="http://www.w3.org/2000/svg">
<path d="M50.6429 9.28108C50.5865 8.69902 50.4399 8.17402 50.203 7.70609C49.9662 7.23815 49.6391 6.86723 49.2217 6.59332C48.8044 6.30799 48.2856 6.17104 47.6652 6.18245C47.0336 6.18245 46.5316 6.35935 46.1594 6.71316C45.7872 7.06696 45.6011 7.49495 45.6011 7.99712C45.6011 8.44223 45.7252 8.81886 45.9733 9.12701C46.2215 9.42375 46.5542 9.69195 46.9715 9.93163C47.4001 10.1713 47.8795 10.411 48.4096 10.6506C48.8382 10.8333 49.2725 11.0387 49.7124 11.267C50.1523 11.4952 50.5527 11.7577 50.9136 12.0544C51.2746 12.3398 51.5622 12.6879 51.7765 13.0987C51.9908 13.4982 52.098 13.9718 52.098 14.5197C52.098 15.1588 51.9344 15.7294 51.6073 16.2316C51.2802 16.7338 50.8121 17.1275 50.203 17.4129C49.6052 17.6982 48.8777 17.8409 48.0205 17.8409C47.5355 17.8409 47.0223 17.7667 46.4809 17.6183C45.9508 17.4699 45.4658 17.2588 45.0259 16.9849L45.1105 17.7039H44.0784L44.0107 13.9376H44.8228C44.9131 14.9305 45.2627 15.6838 45.8718 16.1974C46.4922 16.6996 47.231 16.9506 48.0882 16.9506C48.5168 16.9506 48.9059 16.8707 49.2556 16.711C49.6052 16.5512 49.8816 16.3229 50.0846 16.0262C50.2876 15.7294 50.3891 15.3813 50.3891 14.9819C50.3891 14.514 50.2482 14.1202 49.9662 13.8006C49.6955 13.4811 49.3458 13.2072 48.9172 12.9789C48.4999 12.7506 48.06 12.5338 47.5975 12.3284C47.1351 12.1229 46.6839 11.9061 46.244 11.6778C45.8154 11.4496 45.4263 11.1871 45.0766 10.8903C44.727 10.5936 44.4506 10.2455 44.2476 9.84603C44.0446 9.43516 43.9431 8.95581 43.9431 8.40799C43.9431 8.08842 43.9995 7.75174 44.1122 7.39794C44.225 7.04413 44.4168 6.70745 44.6875 6.38788C44.9582 6.06832 45.3248 5.81153 45.7872 5.6175C46.2609 5.41207 46.8531 5.30935 47.5637 5.30935C47.9923 5.30935 48.4717 5.37212 49.0018 5.49767C49.5432 5.62321 50.0338 5.84576 50.4737 6.16533L50.4061 5.44631H51.4212V9.28108H50.6429Z" fill="white"/>
<path d="M58.5127 17.5669C58.4902 17.3843 58.4732 17.2246 58.462 17.0876C58.4507 16.9506 58.4338 16.808 58.4112 16.6596C58.0277 17.0476 57.616 17.3444 57.1761 17.5498C56.7362 17.7438 56.2794 17.8409 55.8057 17.8409C54.9936 17.8409 54.3789 17.6411 53.9615 17.2417C53.5555 16.8308 53.3525 16.3229 53.3525 15.718C53.3525 15.193 53.5047 14.7365 53.8093 14.3485C54.1138 13.9604 54.5142 13.6466 55.0105 13.4069C55.5068 13.1558 56.0482 12.9732 56.6347 12.8591C57.2212 12.7335 57.7965 12.6708 58.3604 12.6708V11.6607C58.3604 11.2955 58.3266 10.9588 58.2589 10.6506C58.1913 10.3311 58.0503 10.0743 57.836 9.88027C57.6329 9.67483 57.3115 9.57212 56.8716 9.57212C56.5783 9.5607 56.2851 9.61777 55.9918 9.74331C55.6985 9.85744 55.473 10.0515 55.3151 10.3254C55.4053 10.4167 55.4617 10.5251 55.4842 10.6506C55.5181 10.7648 55.535 10.8732 55.535 10.9759C55.535 11.1357 55.4673 11.3183 55.332 11.5237C55.1966 11.7178 54.9654 11.8091 54.6383 11.7977C54.3676 11.7977 54.1589 11.7064 54.0123 11.5237C53.8769 11.3297 53.8093 11.1072 53.8093 10.8561C53.8093 10.4452 53.9559 10.08 54.2492 9.76043C54.5537 9.44087 54.9654 9.18978 55.4842 9.00717C56.0031 8.82456 56.584 8.73326 57.2269 8.73326C58.1969 8.73326 58.9188 8.99005 59.3925 9.50364C59.8775 10.0172 60.12 10.8275 60.12 11.9346C60.12 12.3455 60.12 12.7392 60.12 13.1159C60.12 13.4925 60.1144 13.8691 60.1031 14.2458C60.1031 14.6224 60.1031 15.0218 60.1031 15.4441C60.1031 15.6153 60.0975 15.8093 60.0862 16.0262C60.0749 16.243 60.058 16.4713 60.0354 16.711C60.2272 16.6996 60.4246 16.6881 60.6276 16.6767C60.8306 16.6653 61.0224 16.6596 61.2028 16.6596V17.5669H58.5127ZM58.3604 13.4583C57.9995 13.4811 57.6273 13.5324 57.2438 13.6123C56.8716 13.6922 56.5332 13.8121 56.2287 13.9718C55.9241 14.1316 55.676 14.3371 55.4842 14.5881C55.3038 14.8392 55.2135 15.1417 55.2135 15.4955C55.2361 15.8835 55.3602 16.1688 55.5858 16.3515C55.8226 16.5341 56.099 16.6254 56.4148 16.6254C56.8096 16.6254 57.1592 16.5512 57.4637 16.4028C57.7683 16.243 58.0672 16.0262 58.3604 15.7523C58.3492 15.6267 58.3435 15.5012 58.3435 15.3756C58.3435 15.2387 58.3435 15.096 58.3435 14.9477C58.3435 14.8449 58.3435 14.6566 58.3435 14.3827C58.3548 14.0974 58.3604 13.7892 58.3604 13.4583Z" fill="white"/>
<path d="M63.3609 8.5963C63.3609 7.29522 63.609 6.30229 64.1053 5.6175C64.6129 4.93272 65.4081 4.59033 66.4909 4.59033C66.8293 4.59033 67.1451 4.6474 67.4384 4.76153C67.7316 4.86424 67.9685 5.01832 68.1489 5.22375C68.3294 5.41778 68.4196 5.65174 68.4196 5.92566C68.4196 6.17674 68.3463 6.38788 68.1997 6.55908C68.0644 6.73027 67.867 6.82158 67.6075 6.83299C67.3143 6.8444 67.1 6.75881 66.9646 6.5762C66.8406 6.39359 66.7785 6.21098 66.7785 6.02837C66.7785 5.97131 66.7785 5.90854 66.7785 5.84006C66.7898 5.77158 66.8124 5.7031 66.8462 5.63462C66.7672 5.54332 66.6657 5.48055 66.5417 5.44631C66.4289 5.41207 66.3217 5.39495 66.2202 5.39495C65.9269 5.39495 65.7013 5.48055 65.5434 5.65174C65.3855 5.82294 65.2727 6.03979 65.2051 6.30228C65.1374 6.56478 65.1035 6.83299 65.1035 7.1069V9.00717H67.2692V9.89739L65.1205 9.94875L65.1374 15.427C65.1374 15.6324 65.1317 15.8436 65.1205 16.0604C65.1092 16.2773 65.0923 16.4941 65.0697 16.711C65.2502 16.6996 65.4363 16.6938 65.628 16.6938C65.8311 16.6824 66.0115 16.671 66.1694 16.6596V17.5669H62.3627V16.8479C62.7011 16.8479 62.9379 16.768 63.0733 16.6082C63.2086 16.4485 63.2876 16.2259 63.3101 15.9406C63.344 15.6553 63.3609 15.3243 63.3609 14.9477V9.96587L62.0243 10.0001V9.00717H63.3609V8.5963Z" fill="white"/>
<path d="M69.3585 8.5963C69.3585 7.29522 69.6067 6.30229 70.1029 5.6175C70.6105 4.93272 71.4057 4.59033 72.4885 4.59033C72.8269 4.59033 73.1427 4.6474 73.436 4.76153C73.7292 4.86424 73.9661 5.01832 74.1466 5.22375C74.327 5.41778 74.4173 5.65174 74.4173 5.92566C74.4173 6.17674 74.3439 6.38788 74.1973 6.55908C74.062 6.73027 73.8646 6.82158 73.6052 6.83299C73.3119 6.8444 73.0976 6.75881 72.9622 6.5762C72.8382 6.39359 72.7761 6.21098 72.7761 6.02837C72.7761 5.97131 72.7761 5.90854 72.7761 5.84006C72.7874 5.77158 72.81 5.7031 72.8438 5.63462C72.7648 5.54332 72.6633 5.48055 72.5393 5.44631C72.4265 5.41207 72.3193 5.39495 72.2178 5.39495C71.9245 5.39495 71.699 5.48055 71.541 5.65174C71.3831 5.82294 71.2703 6.03979 71.2027 6.30228C71.135 6.56478 71.1012 6.83299 71.1012 7.1069V9.00717H73.2668V9.89739L71.1181 9.94875L71.135 15.427C71.135 15.6324 71.1294 15.8436 71.1181 16.0604C71.1068 16.2773 71.0899 16.4941 71.0673 16.711C71.2478 16.6996 71.4339 16.6938 71.6256 16.6938C71.8287 16.6824 72.0091 16.671 72.167 16.6596V17.5669H68.3603V16.8479C68.6987 16.8479 68.9355 16.768 69.0709 16.6082C69.2062 16.4485 69.2852 16.2259 69.3078 15.9406C69.3416 15.6553 69.3585 15.3243 69.3585 14.9477V9.96587L68.0219 10.0001V9.00717H69.3585V8.5963Z" fill="white"/>
<path d="M74.1746 16.8479C74.513 16.8479 74.7498 16.768 74.8852 16.6082C75.0205 16.4485 75.0995 16.2259 75.122 15.9406C75.1559 15.6553 75.1728 15.3243 75.1728 14.9477V11.3868C75.1728 11.2042 75.1728 11.0102 75.1728 10.8047C75.1841 10.5879 75.2066 10.3767 75.2405 10.1713C75.0487 10.1827 74.8457 10.1941 74.6314 10.2055C74.4171 10.2055 74.2197 10.2112 74.0392 10.2227V9.31532H74.6145C75.0882 9.31532 75.4491 9.26397 75.6973 9.16125C75.9454 9.05853 76.1259 8.95011 76.2387 8.83598H76.8478C76.8703 8.99576 76.8872 9.21831 76.8985 9.50364C76.9098 9.78896 76.9211 10.1085 76.9324 10.4623C77.1467 10.1428 77.3948 9.85744 77.6768 9.60636C77.9588 9.34386 78.2633 9.13272 78.5904 8.97293C78.9288 8.81315 79.2784 8.73326 79.6394 8.73326C79.989 8.73326 80.2879 8.83027 80.5361 9.02429C80.7955 9.2069 80.9252 9.50935 80.9252 9.93163C80.9252 10.0458 80.8914 10.177 80.8237 10.3254C80.7673 10.4737 80.6658 10.605 80.5192 10.7191C80.3838 10.8218 80.1977 10.8732 79.9608 10.8732C79.724 10.8618 79.5153 10.7705 79.3348 10.5993C79.1656 10.4281 79.0867 10.1941 79.098 9.89739C78.8273 9.89739 78.5566 9.98299 78.2859 10.1542C78.0152 10.314 77.7614 10.5308 77.5245 10.8047C77.2989 11.0786 77.1072 11.3754 76.9493 11.6949V15.4441C76.9493 15.6496 76.9436 15.8607 76.9324 16.0775C76.9324 16.283 76.9154 16.4941 76.8816 16.711C77.0621 16.6996 77.2482 16.6938 77.4399 16.6938C77.6317 16.6824 77.8065 16.671 77.9644 16.6596V17.5669H74.1746V16.8479Z" fill="white"/>
<path d="M85.8382 17.8409C85.0373 17.8409 84.3155 17.6582 83.6725 17.293C83.0296 16.9278 82.5164 16.4199 82.1329 15.7694C81.7607 15.1074 81.5746 14.3485 81.5746 13.4925C81.5746 12.568 81.7607 11.752 82.1329 11.0444C82.5164 10.3254 83.0296 9.76043 83.6725 9.34956C84.3155 8.93869 85.0317 8.73326 85.8212 8.73326C86.6221 8.73326 87.3439 8.92157 87.9869 9.2982C88.6298 9.66342 89.1373 10.177 89.5096 10.839C89.893 11.4895 90.0848 12.2428 90.0848 13.0987C90.0848 14.0004 89.8987 14.8107 89.5265 15.5297C89.1543 16.2487 88.6467 16.8137 88.0038 17.2245C87.3721 17.6354 86.6503 17.8409 85.8382 17.8409ZM85.9566 16.9849C86.498 16.9735 86.921 16.8023 87.2255 16.4713C87.5413 16.1403 87.7669 15.718 87.9023 15.2044C88.0376 14.6794 88.1053 14.1373 88.1053 13.5781C88.1053 13.0873 88.0602 12.608 87.9699 12.14C87.891 11.6607 87.7613 11.227 87.5808 10.839C87.4003 10.4509 87.1635 10.1428 86.8702 9.91451C86.577 9.67483 86.2217 9.5607 85.8043 9.57212C85.2742 9.57212 84.84 9.73761 84.5016 10.0686C84.1745 10.3996 83.932 10.8275 83.7741 11.3525C83.6274 11.8661 83.5541 12.414 83.5541 12.996C83.5541 13.6694 83.6387 14.3085 83.8079 14.9134C83.9771 15.5183 84.2365 16.0148 84.5862 16.4028C84.9471 16.7909 85.4039 16.9849 85.9566 16.9849Z" fill="white"/>
<path d="M91.4569 17.5669V16.8479C91.7953 16.8479 92.0322 16.768 92.1675 16.6082C92.3029 16.4485 92.3818 16.2259 92.4044 15.9406C92.4382 15.6553 92.4552 15.3243 92.4552 14.9477L92.4721 11.3868C92.4721 11.2042 92.4721 11.0102 92.4721 10.8047C92.4834 10.5879 92.5059 10.3767 92.5398 10.1713C92.3367 10.1827 92.1281 10.1941 91.9138 10.2055C91.7107 10.2055 91.519 10.2112 91.3385 10.2227V9.31532C91.8461 9.31532 92.2409 9.2925 92.5228 9.24685C92.8161 9.18978 93.036 9.12701 93.1827 9.05853C93.3406 8.99005 93.459 8.91587 93.538 8.83598H94.147C94.1583 8.93869 94.164 9.0357 94.164 9.12701C94.1752 9.21831 94.1809 9.31532 94.1809 9.41804C94.1922 9.52076 94.2034 9.65201 94.2147 9.81179C94.4629 9.60636 94.7336 9.42375 95.0268 9.26397C95.3201 9.10418 95.6246 8.97864 95.9404 8.88734C96.2675 8.78462 96.5777 8.73326 96.871 8.73326C97.8748 8.73326 98.5967 9.04141 99.0366 9.65771C99.4878 10.274 99.7134 11.2384 99.7134 12.5509V15.4441C99.7134 15.6496 99.7077 15.8607 99.6964 16.0775C99.6852 16.283 99.6682 16.4941 99.6457 16.711C99.8262 16.6996 100.007 16.6938 100.187 16.6938C100.379 16.6824 100.554 16.671 100.712 16.6596V17.5669H96.9387V16.8479C97.277 16.8479 97.5139 16.768 97.6493 16.6082C97.7846 16.4485 97.8636 16.2259 97.8861 15.9406C97.92 15.6553 97.9369 15.3243 97.9369 14.9477V12.5509C97.9256 11.6493 97.779 10.9702 97.497 10.5137C97.2263 10.0572 96.7864 9.83462 96.1773 9.84603C95.8164 9.84603 95.4611 9.93733 95.1114 10.1199C94.7618 10.3025 94.4685 10.5251 94.2316 10.7876C94.2316 10.9017 94.2316 11.0273 94.2316 11.1642C94.2316 11.2898 94.2316 11.421 94.2316 11.558V15.4441C94.2316 15.6496 94.226 15.8607 94.2147 16.0775C94.2034 16.283 94.1865 16.4941 94.164 16.711C94.3444 16.6996 94.5249 16.6938 94.7054 16.6938C94.8971 16.6824 95.0719 16.671 95.2299 16.6596V17.5669H91.4569Z" fill="white"/>
<path d="M108.752 9.28108C108.696 8.69902 108.549 8.17402 108.312 7.70609C108.075 7.23815 107.748 6.86723 107.331 6.59332C106.913 6.30799 106.395 6.17104 105.774 6.18245C105.143 6.18245 104.641 6.35935 104.269 6.71316C103.896 7.06696 103.71 7.49495 103.71 7.99712C103.71 8.44223 103.834 8.81886 104.082 9.12701C104.331 9.42375 104.663 9.69195 105.081 9.93163C105.509 10.1713 105.989 10.411 106.519 10.6506C106.947 10.8333 107.382 11.0387 107.821 11.267C108.261 11.4952 108.662 11.7577 109.023 12.0544C109.384 12.3398 109.671 12.6879 109.886 13.0987C110.1 13.4982 110.207 13.9718 110.207 14.5197C110.207 15.1588 110.043 15.7294 109.716 16.2316C109.389 16.7338 108.921 17.1275 108.312 17.4129C107.714 17.6982 106.987 17.8409 106.13 17.8409C105.645 17.8409 105.131 17.7667 104.59 17.6183C104.06 17.4699 103.575 17.2588 103.135 16.9849L103.22 17.7039H102.187L102.12 13.9376H102.932C103.022 14.9305 103.372 15.6838 103.981 16.1974C104.601 16.6996 105.34 16.9506 106.197 16.9506C106.626 16.9506 107.015 16.8707 107.365 16.711C107.714 16.5512 107.991 16.3229 108.194 16.0262C108.397 15.7294 108.498 15.3813 108.498 14.9819C108.498 14.514 108.357 14.1202 108.075 13.8006C107.805 13.4811 107.455 13.2072 107.026 12.9789C106.609 12.7506 106.169 12.5338 105.707 12.3284C105.244 12.1229 104.793 11.9061 104.353 11.6778C103.924 11.4496 103.535 11.1871 103.186 10.8903C102.836 10.5936 102.56 10.2455 102.357 9.84603C102.154 9.43516 102.052 8.95581 102.052 8.40799C102.052 8.08842 102.109 7.75174 102.221 7.39794C102.334 7.04413 102.526 6.70745 102.797 6.38788C103.067 6.06832 103.434 5.81153 103.896 5.6175C104.37 5.41207 104.962 5.30935 105.673 5.30935C106.101 5.30935 106.581 5.37212 107.111 5.49767C107.652 5.62321 108.143 5.84576 108.583 6.16533L108.515 5.44631H109.53V9.28108H108.752Z" fill="white"/>
<path d="M114.78 17.8409C114.498 17.8409 114.216 17.8009 113.934 17.721C113.652 17.6525 113.387 17.5099 113.138 17.293C112.902 17.0648 112.716 16.7395 112.58 16.3172C112.445 15.8949 112.377 15.3357 112.377 14.6395L112.411 9.96587H111.159V9.00717C111.464 8.99576 111.774 8.88163 112.09 8.66478C112.405 8.44793 112.682 8.1569 112.919 7.79168C113.155 7.42647 113.319 7.03272 113.409 6.61044H114.204V9.00717H116.81V9.89739L114.204 9.93163L114.171 14.5025C114.171 14.9362 114.204 15.3186 114.272 15.6496C114.351 15.9691 114.475 16.2202 114.644 16.4028C114.825 16.574 115.067 16.6596 115.372 16.6596C115.631 16.6596 115.896 16.5797 116.167 16.4199C116.449 16.2601 116.714 15.9977 116.962 15.6324L117.537 16.146C117.267 16.5455 116.996 16.8593 116.725 17.0876C116.455 17.3159 116.195 17.4813 115.947 17.5841C115.699 17.6982 115.473 17.7667 115.27 17.7895C115.067 17.8237 114.904 17.8409 114.78 17.8409Z" fill="white"/>
<path d="M123.247 17.5669C123.225 17.3843 123.208 17.2246 123.196 17.0876C123.185 16.9506 123.168 16.808 123.146 16.6596C122.762 17.0476 122.351 17.3444 121.911 17.5498C121.471 17.7438 121.014 17.8409 120.54 17.8409C119.728 17.8409 119.113 17.6411 118.696 17.2417C118.29 16.8308 118.087 16.3229 118.087 15.718C118.087 15.193 118.239 14.7365 118.544 14.3485C118.848 13.9604 119.249 13.6466 119.745 13.4069C120.241 13.1558 120.783 12.9732 121.369 12.8591C121.956 12.7335 122.531 12.6708 123.095 12.6708V11.6607C123.095 11.2955 123.061 10.9588 122.993 10.6506C122.926 10.3311 122.785 10.0743 122.57 9.88027C122.367 9.67483 122.046 9.57212 121.606 9.57212C121.313 9.5607 121.02 9.61777 120.726 9.74331C120.433 9.85744 120.207 10.0515 120.05 10.3254C120.14 10.4167 120.196 10.5251 120.219 10.6506C120.253 10.7648 120.27 10.8732 120.27 10.9759C120.27 11.1357 120.202 11.3183 120.067 11.5237C119.931 11.7178 119.7 11.8091 119.373 11.7977C119.102 11.7977 118.893 11.7064 118.747 11.5237C118.611 11.3297 118.544 11.1072 118.544 10.8561C118.544 10.4452 118.69 10.08 118.984 9.76043C119.288 9.44087 119.7 9.18978 120.219 9.00717C120.738 8.82456 121.319 8.73326 121.961 8.73326C122.931 8.73326 123.653 8.99005 124.127 9.50364C124.612 10.0172 124.855 10.8275 124.855 11.9346C124.855 12.3455 124.855 12.7392 124.855 13.1159C124.855 13.4925 124.849 13.8691 124.838 14.2458C124.838 14.6224 124.838 15.0218 124.838 15.4441C124.838 15.6153 124.832 15.8093 124.821 16.0262C124.809 16.243 124.793 16.4713 124.77 16.711C124.962 16.6996 125.159 16.6881 125.362 16.6767C125.565 16.6653 125.757 16.6596 125.937 16.6596V17.5669H123.247ZM123.095 13.4583C122.734 13.4811 122.362 13.5324 121.978 13.6123C121.606 13.6922 121.268 13.8121 120.963 13.9718C120.659 14.1316 120.411 14.3371 120.219 14.5881C120.038 14.8392 119.948 15.1417 119.948 15.4955C119.971 15.8835 120.095 16.1688 120.32 16.3515C120.557 16.5341 120.833 16.6254 121.149 16.6254C121.544 16.6254 121.894 16.5512 122.198 16.4028C122.503 16.243 122.802 16.0262 123.095 15.7523C123.084 15.6267 123.078 15.5012 123.078 15.3756C123.078 15.2387 123.078 15.096 123.078 14.9477C123.078 14.8449 123.078 14.6566 123.078 14.3827C123.089 14.0974 123.095 13.7892 123.095 13.4583Z" fill="white"/>
<path d="M128.32 22.2063C127.948 22.2063 127.626 22.1036 127.355 21.8982C127.096 21.7042 126.966 21.4188 126.966 21.0422C126.966 20.8025 127.04 20.5857 127.186 20.3917C127.344 20.1976 127.547 20.1006 127.795 20.1006C128.066 20.0892 128.258 20.1748 128.37 20.3574C128.495 20.54 128.557 20.7283 128.557 20.9224C128.557 20.9566 128.557 20.9908 128.557 21.0251C128.557 21.0593 128.551 21.0993 128.54 21.1449C128.574 21.1677 128.624 21.1735 128.692 21.162C128.816 21.1506 128.951 21.0822 129.098 20.9566C129.245 20.8311 129.38 20.6542 129.504 20.4259C129.639 20.1748 129.792 19.8267 129.961 19.3816C130.13 18.9365 130.316 18.4229 130.519 17.8409L127.863 12.2256C127.558 11.5865 127.344 11.09 127.22 10.7362C127.107 10.371 127.034 10.0857 127 9.88027L126.188 9.91451V9.00717H129.927V9.70907H129.893C129.431 9.75472 129.177 9.93163 129.132 10.2398C129.098 10.5479 129.205 10.9702 129.453 11.5066L131.314 15.6496C131.529 15.0675 131.743 14.4341 131.957 13.7493C132.183 13.0645 132.414 12.3626 132.651 11.6436C132.73 11.4267 132.809 11.1985 132.888 10.9588C132.978 10.7077 133.068 10.4795 133.159 10.274C133.26 10.0686 133.356 9.92592 133.446 9.84603L132.346 9.91451V9.00717H135.121V9.70907C134.726 9.84603 134.416 10.0971 134.191 10.4623C133.976 10.8275 133.768 11.2898 133.565 11.849L131.45 17.8751C131.123 18.8224 130.818 19.6156 130.536 20.2547C130.254 20.9053 129.938 21.3903 129.589 21.7099C129.25 22.0408 128.827 22.2063 128.32 22.2063Z" fill="white"/>
<path d="M139.522 17.8409C138.992 17.8409 138.502 17.7667 138.05 17.6183C137.599 17.4813 137.238 17.3159 136.968 17.1218L137.018 17.6868H136.122L136.037 14.7422H136.748C136.77 15.1645 136.9 15.5468 137.137 15.8892C137.374 16.2316 137.678 16.4998 138.05 16.6938C138.434 16.8879 138.846 16.9849 139.285 16.9849C139.545 16.9849 139.799 16.9449 140.047 16.865C140.295 16.7737 140.504 16.6425 140.673 16.4713C140.842 16.2887 140.927 16.0661 140.927 15.8036C140.927 15.5183 140.836 15.2843 140.656 15.1017C140.487 14.9077 140.25 14.7365 139.945 14.5881C139.652 14.4398 139.314 14.2914 138.93 14.143C138.592 14.0061 138.248 13.8634 137.898 13.715C137.56 13.5667 137.244 13.3898 136.951 13.1843C136.657 12.9789 136.426 12.7278 136.257 12.4311C136.088 12.1229 136.003 11.7463 136.003 11.3012C136.003 11.0387 136.054 10.7591 136.155 10.4623C136.257 10.1542 136.42 9.87456 136.646 9.62348C136.872 9.36098 137.176 9.14983 137.56 8.99005C137.943 8.81886 138.417 8.73326 138.981 8.73326C139.285 8.73326 139.624 8.78462 139.996 8.88734C140.38 8.99005 140.735 9.16695 141.062 9.41804L141.045 8.81886H141.942V11.8319H141.214C141.18 11.4324 141.073 11.0615 140.893 10.7191C140.724 10.3767 140.481 10.0971 140.165 9.88027C139.849 9.66342 139.466 9.555 139.015 9.555C138.575 9.555 138.214 9.66913 137.932 9.89739C137.661 10.1142 137.526 10.3881 137.526 10.7191C137.526 11.0501 137.627 11.3183 137.83 11.5237C138.045 11.7292 138.321 11.9061 138.659 12.0544C138.998 12.2028 139.364 12.3512 139.759 12.4996C140.233 12.6936 140.678 12.9047 141.096 13.133C141.513 13.3612 141.851 13.6466 142.111 13.989C142.37 14.3313 142.5 14.765 142.5 15.29C142.5 15.8607 142.353 16.34 142.06 16.7281C141.778 17.1047 141.412 17.3843 140.96 17.5669C140.509 17.7495 140.03 17.8409 139.522 17.8409Z" fill="white"/>
<path d="M45.5708 31.014L44.2196 26.5792H44.9356L45.8942 29.9746H45.9404L46.8874 26.5792H47.615L48.5505 29.963H48.5967L49.5552 26.5792H50.2713L48.92 31.014H48.2502L47.2801 27.607H47.2108L46.2407 31.014H45.5708Z" fill="white"/>
<path d="M53.073 28.3462V31.014H52.3916V25.1009H53.073V27.2721H53.1308C53.2347 27.0431 53.3906 26.8612 53.5985 26.7264C53.8083 26.5898 54.0874 26.5214 54.4358 26.5214C54.738 26.5214 55.0027 26.5821 55.2298 26.7033C55.4569 26.8227 55.6331 27.0065 55.7582 27.2548C55.8852 27.5012 55.9487 27.8149 55.9487 28.196V31.014H55.2673V28.2422C55.2673 27.89 55.1759 27.6176 54.993 27.4251C54.8121 27.2307 54.5609 27.1335 54.2395 27.1335C54.0162 27.1335 53.816 27.1807 53.6389 27.275C53.4638 27.3693 53.3252 27.5069 53.2232 27.6879C53.1231 27.8688 53.073 28.0882 53.073 28.3462Z" fill="white"/>
<path d="M60.2742 31.1064C59.8469 31.1064 59.4783 31.012 59.1684 30.8234C58.8605 30.6329 58.6227 30.3672 58.4553 30.0265C58.2897 29.6839 58.207 29.2855 58.207 28.8312C58.207 28.377 58.2897 27.9766 58.4553 27.6301C58.6227 27.2817 58.8556 27.0103 59.154 26.8159C59.4543 26.6196 59.8046 26.5214 60.2049 26.5214C60.4359 26.5214 60.664 26.5599 60.8892 26.6369C61.1144 26.7139 61.3194 26.839 61.5042 27.0123C61.689 27.1836 61.8362 27.4107 61.9459 27.6936C62.0557 27.9766 62.1105 28.325 62.1105 28.7388V29.0275H58.692V28.4386H61.4176C61.4176 28.1883 61.3675 27.965 61.2674 27.7687C61.1693 27.5724 61.0288 27.4174 60.8459 27.3039C60.665 27.1903 60.4513 27.1335 60.2049 27.1335C59.9335 27.1335 59.6987 27.2009 59.5005 27.3356C59.3041 27.4684 59.153 27.6417 59.0472 27.8553C58.9413 28.069 58.8884 28.298 58.8884 28.5425V28.9352C58.8884 29.2701 58.9461 29.554 59.0616 29.7869C59.179 30.0179 59.3417 30.194 59.5495 30.3153C59.7574 30.4346 59.999 30.4943 60.2742 30.4943C60.4532 30.4943 60.6149 30.4692 60.7593 30.4192C60.9056 30.3672 61.0317 30.2902 61.1375 30.1882C61.2434 30.0843 61.3252 29.9553 61.3829 29.8013L62.0412 29.9861C61.9719 30.2094 61.8555 30.4057 61.6919 30.5751C61.5283 30.7426 61.3262 30.8735 61.0856 30.9678C60.8449 31.0602 60.5745 31.1064 60.2742 31.1064Z" fill="white"/>
<path d="M64.3666 31.014V26.5792H65.0249V27.249H65.0711C65.1519 27.0296 65.2982 26.8515 65.51 26.7149C65.7217 26.5782 65.9604 26.5099 66.226 26.5099C66.276 26.5099 66.3386 26.5108 66.4137 26.5128C66.4887 26.5147 66.5455 26.5176 66.584 26.5214V27.2144C66.5609 27.2086 66.508 27.1999 66.4252 27.1884C66.3444 27.1749 66.2587 27.1682 66.1682 27.1682C65.9527 27.1682 65.7602 27.2134 65.5908 27.3039C65.4233 27.3924 65.2905 27.5156 65.1924 27.6734C65.0961 27.8293 65.048 28.0074 65.048 28.2076V31.014H64.3666Z" fill="white"/>
<path d="M70.3357 31.1064C69.9084 31.1064 69.5398 31.012 69.2299 30.8234C68.9219 30.6329 68.6842 30.3672 68.5167 30.0265C68.3512 29.6839 68.2684 29.2855 68.2684 28.8312C68.2684 28.377 68.3512 27.9766 68.5167 27.6301C68.6842 27.2817 68.9171 27.0103 69.2154 26.8159C69.5157 26.6196 69.866 26.5214 70.2664 26.5214C70.4974 26.5214 70.7255 26.5599 70.9507 26.6369C71.1759 26.7139 71.3809 26.839 71.5656 27.0123C71.7504 27.1836 71.8977 27.4107 72.0074 27.6936C72.1171 27.9766 72.172 28.325 72.172 28.7388V29.0275H68.7535V28.4386H71.479C71.479 28.1883 71.429 27.965 71.3289 27.7687C71.2307 27.5724 71.0902 27.4174 70.9074 27.3039C70.7264 27.1903 70.5128 27.1335 70.2664 27.1335C69.995 27.1335 69.7602 27.2009 69.5619 27.3356C69.3656 27.4684 69.2145 27.6417 69.1086 27.8553C69.0027 28.069 68.9498 28.298 68.9498 28.5425V28.9352C68.9498 29.2701 69.0076 29.554 69.123 29.7869C69.2405 30.0179 69.4031 30.194 69.611 30.3153C69.8189 30.4346 70.0604 30.4943 70.3357 30.4943C70.5147 30.4943 70.6764 30.4692 70.8207 30.4192C70.967 30.3672 71.0931 30.2902 71.199 30.1882C71.3048 30.0843 71.3866 29.9553 71.4444 29.8013L72.1027 29.9861C72.0334 30.2094 71.9169 30.4057 71.7533 30.5751C71.5897 30.7426 71.3876 30.8735 71.147 30.9678C70.9064 31.0602 70.636 31.1064 70.3357 31.1064Z" fill="white"/>
<path d="M79.9092 26.5792V27.1566H77.5186V26.5792H79.9092ZM78.2346 31.014V25.9671C78.2346 25.713 78.2943 25.5013 78.4136 25.3319C78.5329 25.1625 78.6879 25.0355 78.8784 24.9508C79.069 24.8661 79.2701 24.8237 79.4819 24.8237C79.6493 24.8237 79.786 24.8372 79.8919 24.8642C79.9977 24.8911 80.0766 24.9161 80.1286 24.9392L79.9323 25.5282C79.8976 25.5167 79.8495 25.5022 79.7879 25.4849C79.7283 25.4676 79.6493 25.4589 79.5512 25.4589C79.326 25.4589 79.1633 25.5157 79.0632 25.6293C78.9651 25.7428 78.916 25.9093 78.916 26.1288V31.014H78.2346Z" fill="white"/>
<path d="M83.2617 31.1179C82.9807 31.1179 82.7256 31.065 82.4966 30.9591C82.2675 30.8513 82.0856 30.6964 81.9509 30.4943C81.8162 30.2902 81.7488 30.0439 81.7488 29.7551C81.7488 29.5011 81.7988 29.2951 81.8989 29.1373C81.999 28.9775 82.1328 28.8524 82.3003 28.7619C82.4677 28.6715 82.6525 28.6041 82.8546 28.5598C83.0586 28.5136 83.2636 28.477 83.4696 28.4501C83.7391 28.4155 83.9575 28.3895 84.125 28.3721C84.2944 28.3529 84.4176 28.3211 84.4946 28.2769C84.5735 28.2326 84.6129 28.1556 84.6129 28.0459V28.0228C84.6129 27.7379 84.535 27.5166 84.3791 27.3587C84.2251 27.2009 83.9912 27.122 83.6775 27.122C83.3522 27.122 83.0971 27.1932 82.9123 27.3356C82.7276 27.4781 82.5976 27.6301 82.5226 27.7918L81.8758 27.5608C81.9913 27.2914 82.1453 27.0816 82.3378 26.9314C82.5322 26.7794 82.7439 26.6735 82.973 26.6138C83.204 26.5522 83.4311 26.5214 83.6544 26.5214C83.7968 26.5214 83.9604 26.5388 84.1452 26.5734C84.3319 26.6061 84.5119 26.6745 84.6851 26.7784C84.8603 26.8823 85.0056 27.0392 85.1211 27.249C85.2366 27.4588 85.2943 27.7398 85.2943 28.0921V31.014H84.6129V30.4134H84.5783C84.5321 30.5097 84.4551 30.6126 84.3473 30.7224C84.2395 30.8321 84.0961 30.9254 83.9171 31.0024C83.7381 31.0794 83.5196 31.1179 83.2617 31.1179ZM83.3656 30.5058C83.6351 30.5058 83.8623 30.4529 84.047 30.347C84.2337 30.2412 84.3743 30.1045 84.4686 29.937C84.5648 29.7696 84.6129 29.5934 84.6129 29.4087V28.785C84.5841 28.8197 84.5205 28.8514 84.4224 28.8803C84.3261 28.9072 84.2145 28.9313 84.0875 28.9525C83.9623 28.9717 83.8401 28.9891 83.7208 29.0045C83.6034 29.0179 83.5081 29.0295 83.4349 29.0391C83.2579 29.0622 83.0923 29.0997 82.9383 29.1517C82.7863 29.2017 82.6631 29.2778 82.5688 29.3798C82.4764 29.4799 82.4302 29.6165 82.4302 29.7898C82.4302 30.0265 82.5178 30.2055 82.6929 30.3268C82.87 30.4461 83.0942 30.5058 83.3656 30.5058Z" fill="white"/>
<path d="M87.7576 31.014V26.5792H88.4159V27.2721H88.4736C88.566 27.0354 88.7152 26.8515 88.9211 26.7206C89.1271 26.5878 89.3744 26.5214 89.6632 26.5214C89.9557 26.5214 90.1992 26.5878 90.3936 26.7206C90.59 26.8515 90.743 27.0354 90.8527 27.2721H90.8989C91.0125 27.0431 91.1828 26.8612 91.4099 26.7264C91.6371 26.5898 91.9094 26.5214 92.227 26.5214C92.6235 26.5214 92.9479 26.6456 93.2 26.8939C93.4522 27.1403 93.5782 27.5243 93.5782 28.0459V31.014H92.8969V28.0459C92.8969 27.7187 92.8074 27.4848 92.6283 27.3443C92.4493 27.2038 92.2386 27.1335 91.996 27.1335C91.6842 27.1335 91.4427 27.2278 91.2713 27.4165C91.1 27.6032 91.0144 27.8399 91.0144 28.1267V31.014H90.3214V27.9766C90.3214 27.7244 90.2396 27.5214 90.076 27.3674C89.9124 27.2115 89.7016 27.1335 89.4437 27.1335C89.2666 27.1335 89.1011 27.1807 88.9471 27.275C88.7951 27.3693 88.6719 27.5002 88.5775 27.6677C88.4852 27.8332 88.439 28.0247 88.439 28.2422V31.014H87.7576Z" fill="white"/>
<path d="M96.0437 31.014V26.5792H96.725V31.014H96.0437ZM96.3901 25.84C96.2573 25.84 96.1428 25.7948 96.0465 25.7043C95.9522 25.6139 95.9051 25.5051 95.9051 25.3781C95.9051 25.251 95.9522 25.1423 96.0465 25.0518C96.1428 24.9614 96.2573 24.9161 96.3901 24.9161C96.5229 24.9161 96.6365 24.9614 96.7308 25.0518C96.8271 25.1423 96.8752 25.251 96.8752 25.3781C96.8752 25.5051 96.8271 25.6139 96.7308 25.7043C96.6365 25.7948 96.5229 25.84 96.3901 25.84Z" fill="white"/>
<path d="M99.874 25.1009V31.014H99.1926V25.1009H99.874Z" fill="white"/>
<path d="M102.342 31.014V26.5792H103.023V31.014H102.342ZM102.688 25.84C102.555 25.84 102.441 25.7948 102.344 25.7043C102.25 25.6139 102.203 25.5051 102.203 25.3781C102.203 25.251 102.25 25.1423 102.344 25.0518C102.441 24.9614 102.555 24.9161 102.688 24.9161C102.821 24.9161 102.934 24.9614 103.029 25.0518C103.125 25.1423 103.173 25.251 103.173 25.3781C103.173 25.5051 103.125 25.6139 103.029 25.7043C102.934 25.7948 102.821 25.84 102.688 25.84Z" fill="white"/>
<path d="M107.35 31.1064C106.923 31.1064 106.554 31.012 106.244 30.8234C105.936 30.6329 105.698 30.3672 105.531 30.0265C105.365 29.6839 105.283 29.2855 105.283 28.8312C105.283 28.377 105.365 27.9766 105.531 27.6301C105.698 27.2817 105.931 27.0103 106.23 26.8159C106.53 26.6196 106.88 26.5214 107.281 26.5214C107.512 26.5214 107.74 26.5599 107.965 26.6369C108.19 26.7139 108.395 26.839 108.58 27.0123C108.765 27.1836 108.912 27.4107 109.022 27.6936C109.131 27.9766 109.186 28.325 109.186 28.7388V29.0275H105.768V28.4386H108.493C108.493 28.1883 108.443 27.965 108.343 27.7687C108.245 27.5724 108.104 27.4174 107.922 27.3039C107.741 27.1903 107.527 27.1335 107.281 27.1335C107.009 27.1335 106.774 27.2009 106.576 27.3356C106.38 27.4684 106.229 27.6417 106.123 27.8553C106.017 28.069 105.964 28.298 105.964 28.5425V28.9352C105.964 29.2701 106.022 29.554 106.137 29.7869C106.255 30.0179 106.417 30.194 106.625 30.3153C106.833 30.4346 107.075 30.4943 107.35 30.4943C107.529 30.4943 107.691 30.4692 107.835 30.4192C107.981 30.3672 108.107 30.2902 108.213 30.1882C108.319 30.0843 108.401 29.9553 108.459 29.8013L109.117 29.9861C109.048 30.2094 108.931 30.4057 108.768 30.5751C108.604 30.7426 108.402 30.8735 108.161 30.9678C107.921 31.0602 107.65 31.1064 107.35 31.1064Z" fill="white"/>
<path d="M114.584 27.5724L113.972 27.7456C113.933 27.6436 113.876 27.5445 113.801 27.4482C113.728 27.3501 113.628 27.2692 113.501 27.2057C113.374 27.1422 113.211 27.1104 113.013 27.1104C112.742 27.1104 112.515 27.173 112.334 27.2981C112.155 27.4213 112.066 27.5782 112.066 27.7687C112.066 27.9381 112.128 28.0719 112.251 28.17C112.374 28.2682 112.566 28.35 112.828 28.4155L113.486 28.5771C113.883 28.6734 114.178 28.8206 114.373 29.0189C114.567 29.2152 114.664 29.4683 114.664 29.7782C114.664 30.0323 114.591 30.2594 114.445 30.4596C114.301 30.6598 114.099 30.8176 113.839 30.9331C113.579 31.0486 113.277 31.1064 112.932 31.1064C112.48 31.1064 112.105 31.0082 111.809 30.8119C111.513 30.6155 111.325 30.3287 111.246 29.9515L111.893 29.7898C111.954 30.0285 112.071 30.2075 112.242 30.3268C112.415 30.4461 112.641 30.5058 112.921 30.5058C113.238 30.5058 113.49 30.4384 113.677 30.3037C113.866 30.167 113.96 30.0034 113.96 29.8129C113.96 29.6589 113.906 29.5299 113.798 29.426C113.691 29.3201 113.525 29.2412 113.302 29.1892L112.563 29.016C112.156 28.9198 111.858 28.7706 111.668 28.5685C111.479 28.3644 111.385 28.1094 111.385 27.8034C111.385 27.5531 111.455 27.3318 111.595 27.1393C111.738 26.9468 111.931 26.7957 112.176 26.686C112.422 26.5763 112.701 26.5214 113.013 26.5214C113.452 26.5214 113.796 26.6177 114.047 26.8102C114.299 27.0026 114.478 27.2567 114.584 27.5724Z" fill="white"/>
<path d="M120.508 31.014V25.1009H121.19V27.2837H121.248C121.298 27.2067 121.367 27.1085 121.455 26.9892C121.546 26.8679 121.675 26.7601 121.842 26.6658C122.012 26.5695 122.241 26.5214 122.529 26.5214C122.903 26.5214 123.232 26.6148 123.517 26.8015C123.802 26.9882 124.024 27.2529 124.184 27.5955C124.344 27.9381 124.423 28.3423 124.423 28.8081C124.423 29.2778 124.344 29.6849 124.184 30.0294C124.024 30.372 123.803 30.6377 123.52 30.8263C123.237 31.013 122.911 31.1064 122.541 31.1064C122.256 31.1064 122.028 31.0592 121.857 30.9649C121.685 30.8686 121.554 30.7599 121.461 30.6386C121.369 30.5154 121.298 30.4134 121.248 30.3326H121.167V31.014H120.508ZM121.178 28.7966C121.178 29.1315 121.227 29.427 121.325 29.683C121.424 29.937 121.567 30.1362 121.756 30.2806C121.944 30.423 122.175 30.4943 122.449 30.4943C122.733 30.4943 122.971 30.4192 123.162 30.2691C123.354 30.117 123.499 29.913 123.595 29.657C123.693 29.399 123.742 29.1122 123.742 28.7966C123.742 28.4847 123.694 28.2037 123.598 27.9535C123.503 27.7013 123.36 27.5021 123.168 27.3558C122.977 27.2076 122.737 27.1335 122.449 27.1335C122.171 27.1335 121.939 27.2038 121.75 27.3443C121.561 27.4829 121.419 27.6773 121.323 27.9275C121.226 28.1758 121.178 28.4655 121.178 28.7966Z" fill="white"/>
<path d="M128.487 31.1064C128.087 31.1064 127.735 31.0111 127.433 30.8205C127.133 30.63 126.898 30.3634 126.729 30.0208C126.561 29.6781 126.477 29.2778 126.477 28.8197C126.477 28.3577 126.561 27.9545 126.729 27.6099C126.898 27.2654 127.133 26.9978 127.433 26.8073C127.735 26.6167 128.087 26.5214 128.487 26.5214C128.887 26.5214 129.238 26.6167 129.538 26.8073C129.84 26.9978 130.075 27.2654 130.242 27.6099C130.412 27.9545 130.496 28.3577 130.496 28.8197C130.496 29.2778 130.412 29.6781 130.242 30.0208C130.075 30.3634 129.84 30.63 129.538 30.8205C129.238 31.0111 128.887 31.1064 128.487 31.1064ZM128.487 30.4943C128.791 30.4943 129.041 30.4163 129.238 30.2604C129.434 30.1045 129.579 29.8995 129.674 29.6454C129.768 29.3913 129.815 29.1161 129.815 28.8197C129.815 28.5232 129.768 28.247 129.674 27.991C129.579 27.735 129.434 27.5281 129.238 27.3703C129.041 27.2124 128.791 27.1335 128.487 27.1335C128.183 27.1335 127.933 27.2124 127.736 27.3703C127.54 27.5281 127.395 27.735 127.3 27.991C127.206 28.247 127.159 28.5232 127.159 28.8197C127.159 29.1161 127.206 29.3913 127.3 29.6454C127.395 29.8995 127.54 30.1045 127.736 30.2604C127.933 30.4163 128.183 30.4943 128.487 30.4943Z" fill="white"/>
<path d="M133.438 28.3462V31.014H132.756V26.5792H133.414V27.2721H133.472C133.576 27.0469 133.734 26.866 133.946 26.7293C134.157 26.5907 134.431 26.5214 134.766 26.5214C135.066 26.5214 135.329 26.583 135.554 26.7062C135.779 26.8275 135.954 27.0123 136.079 27.2606C136.205 27.5069 136.267 27.8188 136.267 28.196V31.014H135.586V28.2422C135.586 27.8938 135.495 27.6224 135.314 27.428C135.133 27.2317 134.885 27.1335 134.569 27.1335C134.352 27.1335 134.157 27.1807 133.986 27.275C133.817 27.3693 133.683 27.5069 133.585 27.6879C133.487 27.8688 133.438 28.0882 133.438 28.3462Z" fill="white"/>
<path d="M140.406 31.1064C140.037 31.1064 139.711 31.013 139.428 30.8263C139.145 30.6377 138.923 30.372 138.764 30.0294C138.604 29.6849 138.524 29.2778 138.524 28.8081C138.524 28.3423 138.604 27.9381 138.764 27.5955C138.923 27.2529 139.146 26.9882 139.43 26.8015C139.715 26.6148 140.044 26.5214 140.418 26.5214C140.707 26.5214 140.935 26.5695 141.102 26.6658C141.272 26.7601 141.401 26.8679 141.489 26.9892C141.58 27.1085 141.65 27.2067 141.7 27.2837H141.758V25.1009H142.439V31.014H141.781V30.3326H141.7C141.65 30.4134 141.579 30.5154 141.486 30.6386C141.394 30.7599 141.262 30.8686 141.091 30.9649C140.919 31.0592 140.691 31.1064 140.406 31.1064ZM140.499 30.4943C140.772 30.4943 141.003 30.423 141.192 30.2806C141.38 30.1362 141.524 29.937 141.622 29.683C141.72 29.427 141.769 29.1315 141.769 28.7966C141.769 28.4655 141.721 28.1758 141.625 27.9275C141.529 27.6773 141.386 27.4829 141.197 27.3443C141.009 27.2038 140.776 27.1335 140.499 27.1335C140.21 27.1335 139.969 27.2076 139.777 27.3558C139.586 27.5021 139.443 27.7013 139.347 27.9535C139.252 28.2037 139.205 28.4847 139.205 28.7966C139.205 29.1122 139.253 29.399 139.35 29.657C139.448 29.913 139.592 30.117 139.783 30.2691C139.975 30.4192 140.214 30.4943 140.499 30.4943Z" fill="white"/>
<path fill-rule="evenodd" clip-rule="evenodd" d="M10.8093 12.8201L11.5372 14.7893C11.5372 14.7893 19.6856 9.9438 22.5978 8.22562C26.4399 5.04025 23.1033 -0.0360823 19.464 0.00190084C18.5834 -0.0223932 17.713 0.186587 16.9491 0.605675C16.1853 1.02476 15.558 1.63759 15.1367 2.37622C13.7418 4.51892 15.0353 7.5896 16.2686 8.18541C16.3414 8.14181 16.6356 7.94112 16.9703 7.71278C17.3789 7.4341 17.8479 7.11424 18.0481 6.98857C16.1875 5.90791 15.7857 2.35537 19.3018 2.00831C22.072 1.91149 22.881 5.44466 21.3238 6.67949C20.8183 6.97144 10.8093 12.8201 10.8093 12.8201ZM20.4753 10.6787L22.4365 9.57864C22.4365 9.57864 30.3626 15.215 31.4953 15.7945C31.8847 16.0303 32.3312 16.1662 32.7916 16.189C33.2521 16.2118 33.7109 16.1207 34.1237 15.9246C34.5365 15.7286 34.8894 15.4341 35.148 15.0697C35.4067 14.7053 35.5625 14.2834 35.6003 13.8447C35.7618 10.2154 30.5857 10.3122 30.1005 13.1498C29.7061 12.8891 29.4686 12.7154 29.231 12.5417L29.231 12.5417L29.231 12.5417C28.9934 12.368 28.7559 12.1942 28.3616 11.9336C29.4132 8.86441 33.3356 8.43989 35.3577 9.46246C36.1756 9.87286 36.8459 10.5079 37.282 11.2856C37.7181 12.0633 37.9 12.9479 37.8042 13.8253C37.3595 17.8016 33.2342 19.3463 30.606 17.6862C29.2509 16.7977 20.4753 10.6787 20.4753 10.6787ZM28.1795 17.5498L26.4406 16.3143C26.4406 16.3143 22.6391 26.5064 22.2334 27.5901C21.7497 29.7715 23.1649 33.3397 27.1482 33.2652C28.2944 33.1813 29.3795 32.7384 30.2351 32.0054C31.0906 31.2724 31.6687 30.2903 31.8796 29.2114C31.976 27.9758 31.5761 26.7515 30.7612 25.7871C29.9464 24.8227 28.7776 24.1905 27.4922 24.0189C27.4272 24.1763 27.3721 24.3054 27.3199 24.4279L27.3194 24.4289L27.3194 24.429L27.3193 24.4291C27.1604 24.8014 27.0277 25.1123 26.7238 25.9687C30.7274 26.0461 30.7071 31.1039 26.9664 31.3161C26.5395 31.3157 26.1183 31.2221 25.7351 31.0424C25.3518 30.8628 25.0167 30.6019 24.7553 30.2796C24.4939 29.9574 24.313 29.5824 24.2267 29.1832C24.1403 28.784 24.1507 28.3713 24.257 27.9766C24.3982 27.5297 28.1795 17.5498 28.1795 17.5498ZM21.4249 26.4468L22.2136 24.287C22.2136 24.287 11.1132 24.3064 9.4976 24.3064C5.45344 24.4799 4.34176 28.1091 4.9682 30.2712C7.39438 36.6017 15.9679 32.9524 14.3102 27.7234C13.6026 27.704 12.4496 27.6846 12.1258 27.6846C12.7726 29.4609 11.8224 31.4487 9.65908 31.5068C8.98454 31.5073 8.33445 31.2657 7.83788 30.8298C7.34131 30.394 7.03457 29.7958 6.97858 29.154C6.92259 28.5123 7.12142 27.8739 7.53562 27.3656C7.94981 26.8573 8.54907 26.5164 9.21441 26.4103C9.94071 26.4297 21.4249 26.4468 21.4249 26.4468ZM13.0947 23.3607H10.7692C10.7692 23.3607 7.47396 13.2646 7.25006 12.6286C6.98206 12.1213 6.54983 11.7102 6.01756 11.4561C5.48529 11.202 4.88138 11.1187 4.29553 11.2184C3.70968 11.3181 3.17314 11.5955 2.7656 12.0095C2.35807 12.4235 2.10128 12.9519 2.03338 13.5163C2.00845 14.0382 2.14837 14.5553 2.43499 15.0003C2.72161 15.4454 3.1417 15.7979 3.64076 16.0123C4.13983 16.2266 4.69485 16.2928 5.23383 16.2024C5.7728 16.1119 6.27087 15.8689 6.66341 15.5049C6.73344 15.748 6.79441 15.9637 6.86009 16.196C6.96561 16.5692 7.0833 16.9856 7.27035 17.6282C3.36973 19.6354 0.59873 17.1262 0.0932098 14.4622C-0.351461 12.0685 0.841349 10.5239 2.68166 9.42385C3.30688 9.13477 3.99009 8.97794 4.68463 8.96408C5.37916 8.95023 6.06864 9.07966 6.70597 9.34354C7.34329 9.60742 7.91344 9.99954 8.37746 10.4931C8.84148 10.9866 9.18844 11.57 9.39462 12.2033C9.57639 12.8014 13.0947 23.3607 13.0947 23.3607Z" fill="#FBA919"/>
</svg>
