<svg width="18" height="18" viewBox="0 0 18 18" fill="none" xmlns="http://www.w3.org/2000/svg">
<path d="M3.01206 3.01206C4.30956 1.71456 6.03466 1 7.86956 1C9.70447 1 11.4296 1.71456 12.727 3.01206C14.0245 4.30953 14.7391 6.03463 14.7391 7.8695C14.7391 9.54709 14.1415 11.1327 13.0475 12.3838L16.8626 16.1989C17.0458 16.3822 17.0458 16.6793 16.8626 16.8626C16.7709 16.9542 16.6508 17 16.5308 17C16.4107 17 16.2906 16.9542 16.199 16.8625L12.3839 13.0474C11.1327 14.1414 9.54716 14.7391 7.86956 14.7391C6.03463 14.7391 4.3096 14.0245 3.0121 12.727C1.71463 11.4295 1.00006 9.70444 1.00006 7.86953C1.00006 6.03463 1.7146 4.30953 3.01206 3.01206ZM3.67569 12.0634C5.98822 14.3759 9.75088 14.3759 12.0634 12.0634C14.3759 9.75091 14.3759 5.98819 12.0634 3.67569C10.907 2.51931 9.38853 1.94131 7.86953 1.94131C6.35091 1.94131 4.83178 2.51959 3.67566 3.67569C1.36322 5.98816 1.36322 9.75087 3.67569 12.0634Z" fill="#CCCCCC" stroke="#CCCCCC" stroke-width="0.5"/>
</svg>
