<svg width="21" height="18" viewBox="0 0 21 18" fill="none" xmlns="http://www.w3.org/2000/svg">
<path d="M14.8819 16.4945V14.8519C14.8819 13.9806 14.5371 13.1449 13.9234 12.5288C13.3096 11.9127 12.4772 11.5666 11.6092 11.5666H5.06374C4.19576 11.5666 3.36333 11.9127 2.74958 12.5288C2.13582 13.1449 1.79102 13.9806 1.79102 14.8519V16.4945" stroke="#BBBBBB" stroke-width="1.85379" stroke-linecap="round" stroke-linejoin="round"/>
<path d="M8.33645 8.28145C10.1439 8.28145 11.6092 6.81059 11.6092 4.99619C11.6092 3.1818 10.1439 1.71094 8.33645 1.71094C6.52897 1.71094 5.06372 3.1818 5.06372 4.99619C5.06372 6.81059 6.52897 8.28145 8.33645 8.28145Z" stroke="#BBBBBB" stroke-width="1.85379" stroke-linecap="round" stroke-linejoin="round"/>
<path d="M19.7905 16.498V14.8554C19.79 14.1275 19.5487 13.4204 19.1044 12.8451C18.6601 12.2698 18.0381 11.8589 17.336 11.6769" stroke="#BBBBBB" stroke-width="1.85379" stroke-linecap="round" stroke-linejoin="round"/>
<path d="M14.0632 1.81732C14.7672 1.99826 15.3912 2.40925 15.8367 2.98549C16.2823 3.56174 16.5242 4.27046 16.5242 4.99993C16.5242 5.7294 16.2823 6.43813 15.8367 7.01437C15.3912 7.59062 14.7672 8.00161 14.0632 8.18254" stroke="#BBBBBB" stroke-width="1.85379" stroke-linecap="round" stroke-linejoin="round"/>
</svg>
