<svg width="40" height="40" viewBox="0 0 40 40" fill="none" xmlns="http://www.w3.org/2000/svg">
<circle cx="20" cy="20" r="20" fill="white" fill-opacity="0.2"/>
<circle cx="20" cy="20" r="19.5" stroke="white" stroke-opacity="0.06"/>
<path d="M28.0586 14.3491L28.0586 14.3491C27.288 13.5966 26.1899 13.1785 24.665 13.1785C24.2918 13.1785 23.901 13.2431 23.4904 13.3799L28.0586 14.3491ZM28.0586 14.3491C28.8259 15.0983 29.25 16.1654 29.25 17.6516C29.25 19.0193 28.5438 20.5122 26.9188 22.1386L20.0001 28.802L13.0654 22.1116L13.0402 22.0872L13.0128 22.0653C12.9764 22.0363 12.9007 21.9671 12.7755 21.8385C12.6727 21.7325 12.4859 21.5142 12.204 21.1619L12.204 21.1619C11.9414 20.8336 11.7077 20.4983 11.5026 20.1564L11.5026 20.1563C11.3145 19.8428 11.1364 19.4458 10.9744 18.9562L10.9744 18.9561C10.8218 18.4952 10.75 18.0613 10.75 17.6517C10.75 16.1654 11.1741 15.0983 11.9414 14.3491L11.9414 14.3491M28.0586 14.3491L11.9414 14.3491M22.3265 13.9423L22.326 13.9426C21.9276 14.2044 21.5923 14.4456 21.3168 14.6658C21.0407 14.8868 20.7784 15.1215 20.5303 15.3696L20.0001 15.8997L19.4698 15.3697C19.2215 15.1215 18.9594 14.8869 18.6835 14.6661L22.3265 13.9423ZM22.3265 13.9423C22.6832 13.7075 23.0706 13.5198 23.4903 13.3799L22.3265 13.9423ZM17.6738 13.9424L17.6737 13.9424C17.3165 13.7074 16.9292 13.5199 16.5095 13.3799L17.6738 13.9424ZM17.6738 13.9424C18.0725 14.2047 18.4079 14.4458 18.6832 14.6658L17.6738 13.9424ZM11.9414 14.3491C12.7119 13.5967 13.81 13.1785 15.3348 13.1785C15.7079 13.1785 16.0986 13.2431 16.5093 13.3799L11.9414 14.3491Z" stroke="#CCCCCC" stroke-width="1.5"/>
</svg>
