<svg width="18" height="19" viewBox="0 0 18 19" fill="none" xmlns="http://www.w3.org/2000/svg">
<g clip-path="url(#clip0_1_434)">
<path d="M17.7607 10.5845L13.6367 6.4609V2.98161C13.6367 2.52975 13.2704 2.16343 12.8185 2.16343C12.3667 2.16343 12.0003 2.52975 12.0003 2.98161V4.82465L9.57852 2.40299C9.25905 2.08352 8.74098 2.08352 8.4215 2.40304L0.239951 10.5846C-0.0795767 10.9041 -0.0795767 11.4221 0.239951 11.7417C0.399715 11.9014 0.60906 11.9813 0.81846 11.9813C1.02786 11.9813 1.23726 11.9014 1.39697 11.7417L2.72761 10.4111V16.618C2.72761 17.0698 3.09394 17.4362 3.54579 17.4362H7.36398H10.6367H14.4549C14.9067 17.4362 15.2731 17.0698 15.2731 16.618V10.4112L16.6037 11.7417C16.9231 12.0612 17.4412 12.0611 17.7607 11.7417C18.0803 11.4221 18.0802 10.9041 17.7607 10.5845ZM8.18216 15.7998V12.5271H9.81852V15.7998H8.18216ZM13.6367 15.7998H11.4549V11.7089C11.4549 11.257 11.0886 10.8907 10.6367 10.8907H7.36398C6.91212 10.8907 6.54579 11.257 6.54579 11.7089V15.7998H4.36397V8.77472L9.00007 4.13868L13.6367 8.77499V15.7998Z" fill="#BBBBBB"/>
</g>
<defs>
<clipPath id="clip0_1_434">
<rect width="18" height="18" fill="white" transform="translate(0 0.800781)"/>
</clipPath>
</defs>
</svg>
