<svg width="184" height="43" viewBox="0 0 184 43" fill="none" xmlns="http://www.w3.org/2000/svg">
<path d="M180.974 15.439C180.836 14.0541 180.225 12.9526 179.14 12.1346C178.054 11.3166 176.69 10.9076 175.046 10.9076C173.887 10.9076 172.867 11.1061 171.984 11.5029C171.109 11.8998 170.421 12.4505 169.919 13.1551C169.425 13.8516 169.178 14.6453 169.178 15.5362C169.178 16.1922 169.32 16.7673 169.603 17.2613C169.886 17.7553 170.267 18.1805 170.745 18.5369C171.231 18.8852 171.765 19.1848 172.349 19.4359C172.94 19.687 173.535 19.8975 174.134 20.0676L176.758 20.8208C177.552 21.0395 178.346 21.3189 179.14 21.6591C179.933 21.9992 180.658 22.4285 181.314 22.9468C181.978 23.457 182.509 24.0847 182.906 24.8298C183.311 25.5668 183.513 26.4537 183.513 27.4903C183.513 28.8186 183.169 30.0132 182.48 31.0741C181.792 32.1351 180.804 32.9774 179.516 33.601C178.228 34.2166 176.686 34.5243 174.888 34.5243C173.195 34.5243 171.725 34.2449 170.478 33.6861C169.23 33.1191 168.25 32.3376 167.538 31.3414C166.825 30.3452 166.424 29.1911 166.335 27.8791H168.668C168.749 28.8591 169.073 29.6892 169.639 30.3695C170.206 31.0498 170.943 31.5682 171.85 31.9245C172.758 32.2728 173.77 32.4469 174.888 32.4469C176.127 32.4469 177.228 32.2404 178.192 31.8273C179.164 31.4062 179.925 30.8231 180.476 30.078C181.035 29.3248 181.314 28.4501 181.314 27.4539C181.314 26.6116 181.095 25.907 180.658 25.3401C180.221 24.765 179.609 24.2831 178.824 23.8944C178.046 23.5056 177.143 23.1614 176.115 22.8618L173.138 21.9871C171.186 21.4039 169.672 20.5981 168.595 19.5695C167.518 18.5409 166.979 17.2289 166.979 15.6334C166.979 14.2971 167.335 13.1227 168.048 12.1103C168.769 11.0899 169.741 10.2962 170.964 9.72924C172.195 9.15421 173.576 8.8667 175.106 8.8667C176.653 8.8667 178.022 9.15016 179.212 9.7171C180.403 10.284 181.347 11.0656 182.043 12.0618C182.748 13.0498 183.124 14.1756 183.173 15.439H180.974Z" fill="url(#paint0_linear_1_475)"/>
<path d="M140.31 34.0991V9.21899H154.743V11.2599H142.582V20.6264H153.978V22.6674H142.582V32.0582H154.986V34.0991H140.31Z" fill="url(#paint1_linear_1_475)"/>
<path d="M126.854 9.21899V34.0991H124.582V9.21899H126.854Z" fill="url(#paint2_linear_1_475)"/>
<path d="M96.1581 34.0991V9.21899H104.188C105.954 9.21899 107.428 9.5389 108.61 10.1787C109.801 10.8104 110.696 11.6892 111.295 12.8149C111.903 13.9326 112.206 15.2163 112.206 16.666C112.206 18.1157 111.903 19.3954 111.295 20.5049C110.696 21.6145 109.805 22.4811 108.622 23.1047C107.44 23.7283 105.974 24.0402 104.225 24.0402H97.3851V21.9628H104.164C105.46 21.9628 106.537 21.7481 107.395 21.3189C108.262 20.8896 108.906 20.2782 109.327 19.4845C109.756 18.6908 109.971 17.7513 109.971 16.666C109.971 15.5808 109.756 14.6332 109.327 13.8233C108.898 13.0053 108.25 12.3736 107.383 11.9281C106.525 11.4827 105.44 11.2599 104.128 11.2599H98.4299V34.0991H96.1581ZM107.128 22.8739L113.251 34.0991H110.627L104.565 22.8739H107.128Z" fill="url(#paint3_linear_1_475)"/>
<path d="M69.0038 34.0991V9.21899H83.4362V11.2599H71.2756V20.6264H82.6708V22.6674H71.2756V32.0582H83.6792V34.0991H69.0038Z" fill="url(#paint4_linear_1_475)"/>
<path d="M54.1559 15.4389C54.0182 14.054 53.4067 12.9525 52.3215 12.1345C51.2362 11.3165 49.8715 10.9075 48.2274 10.9075C47.0693 10.9075 46.0488 11.106 45.166 11.5028C44.2913 11.8997 43.6029 12.4504 43.1008 13.155C42.6067 13.8515 42.3597 14.6452 42.3597 15.5361C42.3597 16.1921 42.5014 16.7671 42.7849 17.2612C43.0684 17.7552 43.449 18.1804 43.9269 18.5368C44.4128 18.885 44.9473 19.1847 45.5305 19.4358C46.1217 19.6868 46.717 19.8974 47.3163 20.0675L49.9404 20.8207C50.7341 21.0394 51.5278 21.3188 52.3215 21.6589C53.1152 21.9991 53.84 22.4283 54.4961 22.9467C55.1602 23.4569 55.6907 24.0846 56.0875 24.8297C56.4925 25.5667 56.6949 26.4535 56.6949 27.4902C56.6949 28.8184 56.3507 30.0131 55.6623 31.074C54.9739 32.135 53.9858 32.9773 52.6981 33.6009C51.4103 34.2164 49.8675 34.5242 48.0695 34.5242C46.3768 34.5242 44.9068 34.2448 43.6596 33.6859C42.4124 33.119 41.4324 32.3375 40.7197 31.3413C40.007 30.3451 39.6061 29.191 39.517 27.879H41.8495C41.9305 28.8589 42.2544 29.6891 42.8214 30.3694C43.3883 31.0497 44.1253 31.5681 45.0324 31.9244C45.9395 32.2727 46.9518 32.4468 48.0695 32.4468C49.3087 32.4468 50.4101 32.2403 51.3739 31.8272C52.3458 31.4061 53.1071 30.823 53.6578 30.0778C54.2166 29.3246 54.4961 28.4499 54.4961 27.4538C54.4961 26.6115 54.2774 25.9069 53.84 25.3399C53.4027 24.7649 52.7912 24.283 52.0056 23.8943C51.2281 23.5055 50.3251 23.1613 49.2965 22.8616L46.3201 21.9869C44.3683 21.4038 42.8538 20.598 41.7766 19.5694C40.6994 18.5408 40.1608 17.2288 40.1608 15.6333C40.1608 14.297 40.5172 13.1226 41.2299 12.1102C41.9507 11.0898 42.9226 10.2961 44.1455 9.72912C45.3766 9.15409 46.7575 8.86658 48.2882 8.86658C49.8351 8.86658 51.2038 9.15004 52.3944 9.71697C53.5849 10.2839 54.5285 11.0655 55.225 12.0616C55.9296 13.0497 56.3062 14.1755 56.3548 15.4389H54.1559Z" fill="url(#paint5_linear_1_475)"/>
<path d="M1.66608 0L15.078 20.0762H15.2446L28.6566 0H30.3226L15.9944 21.3258L30.3226 42.6516H28.6566L15.2446 22.5754H15.078L1.66608 42.6516H0L14.3283 21.3258L0 0H1.66608Z" fill="url(#paint6_linear_1_475)"/>
<defs>
<linearGradient id="paint0_linear_1_475" x1="47.1167" y1="8.93022" x2="47.3211" y2="35.181" gradientUnits="userSpaceOnUse">
<stop stop-color="#857D4C"/>
<stop offset="0.0808516" stop-color="#BD9A64"/>
<stop offset="0.510071" stop-color="#FBDE98"/>
<stop offset="0.897799" stop-color="#BD9A64"/>
<stop offset="1" stop-color="#857D4C"/>
</linearGradient>
<linearGradient id="paint1_linear_1_475" x1="47.1166" y1="8.93021" x2="47.321" y2="35.181" gradientUnits="userSpaceOnUse">
<stop stop-color="#857D4C"/>
<stop offset="0.0808516" stop-color="#BD9A64"/>
<stop offset="0.510071" stop-color="#FBDE98"/>
<stop offset="0.897799" stop-color="#BD9A64"/>
<stop offset="1" stop-color="#857D4C"/>
</linearGradient>
<linearGradient id="paint2_linear_1_475" x1="47.1167" y1="8.93021" x2="47.3211" y2="35.181" gradientUnits="userSpaceOnUse">
<stop stop-color="#857D4C"/>
<stop offset="0.0808516" stop-color="#BD9A64"/>
<stop offset="0.510071" stop-color="#FBDE98"/>
<stop offset="0.897799" stop-color="#BD9A64"/>
<stop offset="1" stop-color="#857D4C"/>
</linearGradient>
<linearGradient id="paint3_linear_1_475" x1="47.1168" y1="8.93021" x2="47.3211" y2="35.181" gradientUnits="userSpaceOnUse">
<stop stop-color="#857D4C"/>
<stop offset="0.0808516" stop-color="#BD9A64"/>
<stop offset="0.510071" stop-color="#FBDE98"/>
<stop offset="0.897799" stop-color="#BD9A64"/>
<stop offset="1" stop-color="#857D4C"/>
</linearGradient>
<linearGradient id="paint4_linear_1_475" x1="47.1167" y1="8.93021" x2="47.3211" y2="35.181" gradientUnits="userSpaceOnUse">
<stop stop-color="#857D4C"/>
<stop offset="0.0808516" stop-color="#BD9A64"/>
<stop offset="0.510071" stop-color="#FBDE98"/>
<stop offset="0.897799" stop-color="#BD9A64"/>
<stop offset="1" stop-color="#857D4C"/>
</linearGradient>
<linearGradient id="paint5_linear_1_475" x1="47.1167" y1="8.9301" x2="47.321" y2="35.1808" gradientUnits="userSpaceOnUse">
<stop stop-color="#857D4C"/>
<stop offset="0.0808516" stop-color="#BD9A64"/>
<stop offset="0.510071" stop-color="#FBDE98"/>
<stop offset="0.897799" stop-color="#BD9A64"/>
<stop offset="1" stop-color="#857D4C"/>
</linearGradient>
<linearGradient id="paint6_linear_1_475" x1="0.0777499" y1="-0.599779" x2="24.6241" y2="-2.97248" gradientUnits="userSpaceOnUse">
<stop stop-color="#857D4C"/>
<stop offset="0.0808516" stop-color="#BD9A64"/>
<stop offset="0.510071" stop-color="#FBDE98"/>
<stop offset="0.897799" stop-color="#BD9A64"/>
<stop offset="1" stop-color="#857D4C"/>
</linearGradient>
</defs>
</svg>
