<svg width="34" height="30" viewBox="0 0 34 30" fill="none" xmlns="http://www.w3.org/2000/svg">
<path fill-rule="evenodd" clip-rule="evenodd" d="M9.64377 11.4377L10.2931 13.1945C10.2931 13.1945 17.5629 8.87157 20.1611 7.33866C23.5889 4.49677 20.6121 -0.0321916 17.3652 0.00169587C16.5796 -0.0199786 15.803 0.166468 15.1215 0.540366C14.4401 0.914264 13.8804 1.46101 13.5045 2.11999C12.26 4.03165 13.414 6.77122 14.5144 7.30278C14.5793 7.26388 14.8418 7.08483 15.1404 6.88112C15.505 6.63249 15.9233 6.34712 16.102 6.235C14.442 5.27086 14.0836 2.10139 17.2205 1.79175C19.692 1.70537 20.4137 4.85757 19.0245 5.95924C18.5735 6.21971 9.64377 11.4377 9.64377 11.4377ZM18.2675 9.52719L20.0172 8.54578C20.0172 8.54578 27.0886 13.5744 28.0992 14.0914C28.4466 14.3017 28.8449 14.423 29.2557 14.4433C29.6665 14.4637 30.0759 14.3824 30.4442 14.2075C30.8125 14.0326 31.1273 13.7698 31.3581 13.4448C31.5888 13.1197 31.7278 12.7432 31.7616 12.3518C31.9056 9.1139 27.2877 9.20027 26.8548 11.7319C26.5029 11.4993 26.291 11.3443 26.0791 11.1893L26.079 11.1893L26.079 11.1893C25.8671 11.0343 25.6552 10.8794 25.3034 10.6468C26.2416 7.90857 29.7411 7.52982 31.5451 8.44213C32.2748 8.80828 32.8728 9.37484 33.2619 10.0687C33.651 10.7625 33.8132 11.5518 33.7278 12.3345C33.3311 15.8821 29.6506 17.2602 27.3058 15.7791C26.0968 14.9864 18.2675 9.52719 18.2675 9.52719ZM25.1409 15.6575L23.5895 14.5551C23.5895 14.5551 20.1979 23.6483 19.836 24.615C19.4045 26.5612 20.667 29.7447 24.2208 29.6782C25.2434 29.6034 26.2115 29.2083 26.9748 28.5543C27.7381 27.9003 28.2539 27.0241 28.4421 26.0616C28.528 24.9592 28.1713 23.8669 27.4443 23.0065C26.7173 22.1461 25.6745 21.582 24.5277 21.429C24.4698 21.5694 24.4206 21.6846 24.374 21.7938L24.3736 21.7947L24.3735 21.7948L24.3735 21.7949C24.2317 22.1271 24.1133 22.4045 23.8422 23.1685C27.4141 23.2376 27.396 27.75 24.0586 27.9393C23.6777 27.9389 23.302 27.8554 22.9601 27.6951C22.6182 27.5349 22.3192 27.3021 22.0859 27.0146C21.8527 26.7271 21.6914 26.3925 21.6143 26.0364C21.5373 25.6803 21.5466 25.3121 21.6414 24.9599C21.7674 24.5612 25.1409 15.6575 25.1409 15.6575ZM19.1147 23.5951L19.8183 21.6682C19.8183 21.6682 9.9149 21.6854 8.47348 21.6854C4.8654 21.8403 3.87359 25.0782 4.43248 27.0071C6.59705 32.655 14.2461 29.3992 12.7671 24.734C12.1359 24.7167 11.1072 24.6994 10.8183 24.6994C11.3953 26.2842 10.5476 28.0576 8.61755 28.1094C8.01574 28.1099 7.43575 27.8943 6.99272 27.5055C6.5497 27.1166 6.27604 26.5829 6.22608 26.0104C6.17613 25.4378 6.35352 24.8683 6.72306 24.4148C7.09259 23.9613 7.62723 23.6571 8.22083 23.5625C8.86881 23.5798 19.1147 23.5951 19.1147 23.5951ZM11.6827 20.8417H9.60796C9.60796 20.8417 6.66805 11.8343 6.46829 11.2669C6.22919 10.8143 5.84356 10.4475 5.36869 10.2208C4.89381 9.99414 4.35502 9.91976 3.83234 10.0087C3.30966 10.0977 2.83098 10.3452 2.46739 10.7145C2.1038 11.0839 1.8747 11.5553 1.81412 12.0589C1.79188 12.5245 1.91672 12.9858 2.17243 13.3828C2.42814 13.7799 2.80293 14.0945 3.24818 14.2857C3.69343 14.4769 4.18861 14.536 4.66947 14.4553C5.15032 14.3746 5.59468 14.1578 5.9449 13.833C6.00738 14.0499 6.06177 14.2423 6.12037 14.4496C6.21451 14.7826 6.31951 15.154 6.48639 15.7274C3.00637 17.5181 0.534169 15.2795 0.0831591 12.9028C-0.313563 10.7672 0.750627 9.38909 2.3925 8.40768C2.9503 8.14978 3.55984 8.00986 4.17949 7.99749C4.79913 7.98513 5.41426 8.1006 5.98287 8.33603C6.55147 8.57146 7.06014 8.92129 7.47412 9.36163C7.88811 9.80196 8.19765 10.3224 8.38161 10.8874C8.54378 11.421 11.6827 20.8417 11.6827 20.8417Z" fill="#FBA919"/>
</svg>
