<svg width="111" height="24" viewBox="0 0 111 24" fill="none" xmlns="http://www.w3.org/2000/svg">
<path d="M37.1343 15.482L37.4423 14.418C37.6196 14.502 37.8343 14.5907 38.0863 14.684C38.3476 14.7773 38.6276 14.8567 38.9263 14.922C39.2249 14.9873 39.5143 15.02 39.7943 15.02C40.2516 15.02 40.6343 14.964 40.9423 14.852C41.2503 14.74 41.4836 14.5813 41.6423 14.376C41.8009 14.1613 41.8803 13.9187 41.8803 13.648C41.8803 13.3307 41.7823 13.06 41.5863 12.836C41.3996 12.6027 41.1243 12.388 40.7603 12.192C40.3963 11.9867 39.9529 11.772 39.4303 11.548C39.0196 11.3613 38.6603 11.1793 38.3523 11.002C38.0536 10.8153 37.7969 10.6147 37.5823 10.4C37.3769 10.1853 37.2229 9.94267 37.1203 9.672C37.0176 9.40133 36.9663 9.084 36.9663 8.72C36.9663 8.25333 37.0923 7.838 37.3443 7.474C37.5963 7.10067 37.9556 6.80667 38.4223 6.592C38.8889 6.368 39.4443 6.256 40.0883 6.256C40.5643 6.256 41.0216 6.32133 41.4603 6.452C41.9083 6.58267 42.2909 6.72733 42.6083 6.886L42.1603 7.95C42.0016 7.866 41.8243 7.78667 41.6283 7.712C41.4416 7.63733 41.2269 7.57667 40.9843 7.53C40.7509 7.474 40.4849 7.446 40.1863 7.446C39.6543 7.446 39.2063 7.54867 38.8423 7.754C38.4876 7.95933 38.3103 8.272 38.3103 8.692C38.3103 9.00933 38.3989 9.28467 38.5763 9.518C38.7629 9.742 39.0383 9.95667 39.4023 10.162C39.7756 10.358 40.2329 10.582 40.7743 10.834C41.1663 11.0113 41.5116 11.1933 41.8103 11.38C42.1183 11.5573 42.3749 11.7533 42.5803 11.968C42.7949 12.1827 42.9583 12.4253 43.0703 12.696C43.1823 12.9667 43.2383 13.2747 43.2383 13.62C43.2383 14.1147 43.1029 14.558 42.8323 14.95C42.5709 15.3327 42.1836 15.636 41.6703 15.86C41.1663 16.0747 40.5456 16.182 39.8083 16.182C39.6123 16.182 39.3789 16.1587 39.1083 16.112C38.8469 16.0747 38.5809 16.0233 38.3103 15.958C38.0489 15.8927 37.8109 15.818 37.5963 15.734C37.3816 15.65 37.2276 15.566 37.1343 15.482ZM45.5143 14.04C45.5143 14.208 45.5563 14.376 45.6403 14.544C45.7243 14.7027 45.8503 14.838 46.0183 14.95C46.1863 15.0527 46.3963 15.104 46.6483 15.104C46.9937 15.104 47.3157 15.02 47.6143 14.852C47.9223 14.684 48.193 14.4693 48.4263 14.208V12.836H46.7743C46.3637 12.836 46.051 12.9573 45.8363 13.2C45.6217 13.4427 45.5143 13.7227 45.5143 14.04ZM45.0943 10.694L44.7163 9.63C44.8937 9.50867 45.127 9.406 45.4163 9.322C45.7057 9.22867 45.9997 9.15867 46.2983 9.112C46.597 9.056 46.8397 9.028 47.0263 9.028C47.549 9.028 48.0157 9.13533 48.4263 9.35C48.8463 9.55533 49.173 9.84 49.4063 10.204C49.649 10.5587 49.7703 10.9553 49.7703 11.394V16H48.8323L48.6643 15.356C48.431 15.5613 48.1323 15.748 47.7683 15.916C47.4043 16.084 47.0403 16.168 46.6763 16.168C45.8737 16.168 45.2763 15.9673 44.8843 15.566C44.5017 15.1647 44.3103 14.656 44.3103 14.04C44.3103 13.3587 44.539 12.8407 44.9963 12.486C45.463 12.122 46.065 11.94 46.8023 11.94H48.4123V11.87C48.4123 11.4033 48.319 11.016 48.1323 10.708C47.9457 10.3907 47.5863 10.232 47.0543 10.232C46.653 10.232 46.289 10.2833 45.9623 10.386C45.6357 10.4793 45.3463 10.582 45.0943 10.694ZM50.7806 10.316L50.7666 9.294H51.8026V8.412C51.8026 7.95467 51.8866 7.56267 52.0546 7.236C52.232 6.9 52.4793 6.63867 52.7966 6.452C53.1233 6.26533 53.5106 6.172 53.9586 6.172C54.0986 6.172 54.2386 6.186 54.3786 6.214C54.5186 6.242 54.654 6.27933 54.7846 6.326C54.9153 6.37267 55.018 6.424 55.0926 6.48L54.7566 7.516C54.6633 7.47867 54.5513 7.446 54.4206 7.418C54.2993 7.38067 54.1873 7.362 54.0846 7.362C53.7486 7.362 53.506 7.474 53.3566 7.698C53.2166 7.91267 53.1466 8.19267 53.1466 8.538V9.294H54.4066L54.8406 10.316H53.1466V16H51.8026V10.316H50.7806ZM55.3197 10.316L55.3057 9.294H56.3417V8.412C56.3417 7.95467 56.4257 7.56267 56.5937 7.236C56.771 6.9 57.0184 6.63867 57.3357 6.452C57.6624 6.26533 58.0497 6.172 58.4977 6.172C58.6377 6.172 58.7777 6.186 58.9177 6.214C59.0577 6.242 59.193 6.27933 59.3237 6.326C59.4544 6.37267 59.557 6.424 59.6317 6.48L59.2957 7.516C59.2024 7.47867 59.0904 7.446 58.9597 7.418C58.8384 7.38067 58.7264 7.362 58.6237 7.362C58.2877 7.362 58.045 7.474 57.8957 7.698C57.7557 7.91267 57.6857 8.19267 57.6857 8.538V9.294H58.9457L59.3797 10.316H57.6857V16H56.3417V10.316H55.3197ZM61.8188 16H60.4748V9.21H61.2308L61.6648 10.316C61.8421 10.1667 62.0614 10.008 62.3228 9.84C62.5841 9.66267 62.8548 9.51333 63.1348 9.392C63.4241 9.27067 63.6901 9.21 63.9328 9.21L64.2268 10.288C63.9841 10.288 63.7134 10.3487 63.4148 10.47C63.1254 10.582 62.8408 10.7313 62.5608 10.918C62.2901 11.0953 62.0428 11.2913 61.8188 11.506V16ZM68.1452 16.182C67.4546 16.182 66.8572 16.0327 66.3532 15.734C65.8492 15.426 65.4619 15.006 65.1912 14.474C64.9206 13.9327 64.7852 13.3073 64.7852 12.598C64.7946 11.8887 64.9346 11.268 65.2052 10.736C65.4852 10.204 65.8772 9.78867 66.3812 9.49C66.8946 9.182 67.5012 9.028 68.2012 9.028C68.9012 9.028 69.5032 9.182 70.0072 9.49C70.5112 9.78867 70.8986 10.2087 71.1692 10.75C71.4399 11.282 71.5752 11.9027 71.5752 12.612C71.5752 13.312 71.4352 13.9327 71.1552 14.474C70.8752 15.006 70.4786 15.426 69.9652 15.734C69.4612 16.0327 68.8546 16.182 68.1452 16.182ZM68.1592 15.034C68.5886 15.034 68.9526 14.9267 69.2512 14.712C69.5592 14.4973 69.7926 14.208 69.9512 13.844C70.1192 13.48 70.2032 13.074 70.2032 12.626C70.2032 12.15 70.1239 11.73 69.9652 11.366C69.8159 10.9927 69.5919 10.7033 69.2932 10.498C68.9946 10.2833 68.6306 10.176 68.2012 10.176C67.7812 10.176 67.4172 10.2833 67.1092 10.498C66.8106 10.7127 66.5772 11.002 66.4092 11.366C66.2506 11.73 66.1666 12.136 66.1572 12.584C66.1572 13.0507 66.2319 13.4707 66.3812 13.844C66.5399 14.2173 66.7686 14.5113 67.0672 14.726C67.3659 14.9313 67.7299 15.034 68.1592 15.034ZM74.1781 16H72.8341V9.21H73.7721L74.0101 10.106C74.2435 9.89133 74.5001 9.7 74.7801 9.532C75.0601 9.364 75.3541 9.23333 75.6621 9.14C75.9795 9.03733 76.2921 8.986 76.6001 8.986C77.1135 8.986 77.5288 9.098 77.8461 9.322C78.1728 9.53667 78.4108 9.83533 78.5601 10.218C78.7095 10.6007 78.7841 11.0347 78.7841 11.52V16H77.4401V11.646C77.4401 11.1887 77.3608 10.8247 77.2021 10.554C77.0528 10.274 76.7588 10.134 76.3201 10.134C76.0961 10.134 75.8581 10.1853 75.6061 10.288C75.3635 10.3813 75.1208 10.512 74.8781 10.68C74.6355 10.8387 74.4021 11.016 74.1781 11.212V16ZM80.2964 15.482L80.6044 14.418C80.7817 14.502 80.9964 14.5907 81.2484 14.684C81.5097 14.7773 81.7897 14.8567 82.0884 14.922C82.387 14.9873 82.6764 15.02 82.9564 15.02C83.4137 15.02 83.7964 14.964 84.1044 14.852C84.4124 14.74 84.6457 14.5813 84.8044 14.376C84.963 14.1613 85.0424 13.9187 85.0424 13.648C85.0424 13.3307 84.9444 13.06 84.7484 12.836C84.5617 12.6027 84.2864 12.388 83.9224 12.192C83.5584 11.9867 83.115 11.772 82.5924 11.548C82.1817 11.3613 81.8224 11.1793 81.5144 11.002C81.2157 10.8153 80.959 10.6147 80.7444 10.4C80.539 10.1853 80.385 9.94267 80.2824 9.672C80.1797 9.40133 80.1284 9.084 80.1284 8.72C80.1284 8.25333 80.2544 7.838 80.5064 7.474C80.7584 7.10067 81.1177 6.80667 81.5844 6.592C82.051 6.368 82.6064 6.256 83.2504 6.256C83.7264 6.256 84.1837 6.32133 84.6224 6.452C85.0704 6.58267 85.453 6.72733 85.7704 6.886L85.3224 7.95C85.1637 7.866 84.9864 7.78667 84.7904 7.712C84.6037 7.63733 84.389 7.57667 84.1464 7.53C83.913 7.474 83.647 7.446 83.3484 7.446C82.8164 7.446 82.3684 7.54867 82.0044 7.754C81.6497 7.95933 81.4724 8.272 81.4724 8.692C81.4724 9.00933 81.561 9.28467 81.7384 9.518C81.925 9.742 82.2004 9.95667 82.5644 10.162C82.9377 10.358 83.395 10.582 83.9364 10.834C84.3284 11.0113 84.6737 11.1933 84.9724 11.38C85.2804 11.5573 85.537 11.7533 85.7424 11.968C85.957 12.1827 86.1204 12.4253 86.2324 12.696C86.3444 12.9667 86.4004 13.2747 86.4004 13.62C86.4004 14.1147 86.265 14.558 85.9944 14.95C85.733 15.3327 85.3457 15.636 84.8324 15.86C84.3284 16.0747 83.7077 16.182 82.9704 16.182C82.7744 16.182 82.541 16.1587 82.2704 16.112C82.009 16.0747 81.743 16.0233 81.4724 15.958C81.211 15.8927 80.973 15.818 80.7584 15.734C80.5437 15.65 80.3897 15.566 80.2964 15.482ZM90.5665 9.294L90.9865 10.316H89.3345V13.9C89.3345 14.2453 89.4091 14.53 89.5585 14.754C89.7171 14.9687 89.9645 15.076 90.3005 15.076C90.4125 15.076 90.5245 15.062 90.6365 15.034C90.7578 14.9967 90.8651 14.9593 90.9585 14.922L91.3085 15.944C91.2338 15.9813 91.1311 16.0233 91.0005 16.07C90.8698 16.1167 90.7298 16.154 90.5805 16.182C90.4405 16.2193 90.3005 16.238 90.1605 16.238C89.7218 16.238 89.3391 16.1587 89.0125 16C88.6858 15.832 88.4338 15.5893 88.2565 15.272C88.0791 14.9547 87.9905 14.5673 87.9905 14.11V10.316H87.0385L87.0245 9.294H87.9905V7.6L89.3345 7.292V9.294H90.5665ZM93.4479 14.04C93.4479 14.208 93.4899 14.376 93.5739 14.544C93.6579 14.7027 93.7839 14.838 93.9519 14.95C94.1199 15.0527 94.3299 15.104 94.5819 15.104C94.9273 15.104 95.2493 15.02 95.5479 14.852C95.8559 14.684 96.1266 14.4693 96.3599 14.208V12.836H94.7079C94.2973 12.836 93.9846 12.9573 93.7699 13.2C93.5553 13.4427 93.4479 13.7227 93.4479 14.04ZM93.0279 10.694L92.6499 9.63C92.8273 9.50867 93.0606 9.406 93.3499 9.322C93.6393 9.22867 93.9333 9.15867 94.2319 9.112C94.5306 9.056 94.7733 9.028 94.9599 9.028C95.4826 9.028 95.9493 9.13533 96.3599 9.35C96.7799 9.55533 97.1066 9.84 97.3399 10.204C97.5826 10.5587 97.7039 10.9553 97.7039 11.394V16H96.7659L96.5979 15.356C96.3646 15.5613 96.0659 15.748 95.7019 15.916C95.3379 16.084 94.9739 16.168 94.6099 16.168C93.8073 16.168 93.2099 15.9673 92.8179 15.566C92.4353 15.1647 92.2439 14.656 92.2439 14.04C92.2439 13.3587 92.4726 12.8407 92.9299 12.486C93.3966 12.122 93.9986 11.94 94.7359 11.94H96.3459V11.87C96.3459 11.4033 96.2526 11.016 96.0659 10.708C95.8793 10.3907 95.5199 10.232 94.9879 10.232C94.5866 10.232 94.2226 10.2833 93.8959 10.386C93.5693 10.4793 93.2799 10.582 93.0279 10.694ZM100.716 16.854L101.108 15.818L98.6302 9.434L99.9042 8.958L101.794 14.082L103.586 9.21H104.972L101.962 17.232C101.85 17.54 101.673 17.82 101.43 18.072C101.197 18.324 100.922 18.534 100.604 18.702C100.296 18.8793 99.9649 19.01 99.6102 19.094L99.1622 18.058C99.3862 17.9553 99.6009 17.8527 99.8062 17.75C100.012 17.6473 100.194 17.5213 100.352 17.372C100.52 17.232 100.642 17.0593 100.716 16.854ZM105.583 15.566L106.003 14.628C106.199 14.7213 106.395 14.8053 106.591 14.88C106.797 14.9453 107.002 14.9967 107.207 15.034C107.413 15.0713 107.618 15.09 107.823 15.09C108.122 15.09 108.379 15.0527 108.593 14.978C108.817 14.9033 108.99 14.8007 109.111 14.67C109.233 14.5393 109.293 14.39 109.293 14.222C109.293 14.0447 109.228 13.886 109.097 13.746C108.967 13.606 108.789 13.48 108.565 13.368C108.341 13.2467 108.08 13.1393 107.781 13.046C107.427 12.9247 107.077 12.7753 106.731 12.598C106.395 12.4207 106.115 12.2013 105.891 11.94C105.667 11.6787 105.555 11.366 105.555 11.002C105.555 10.386 105.784 9.90533 106.241 9.56C106.708 9.20533 107.338 9.028 108.131 9.028C108.327 9.028 108.556 9.056 108.817 9.112C109.088 9.15867 109.359 9.22867 109.629 9.322C109.9 9.41533 110.129 9.532 110.315 9.672L109.895 10.582C109.634 10.4607 109.359 10.3533 109.069 10.26C108.789 10.1667 108.467 10.12 108.103 10.12C107.749 10.12 107.455 10.204 107.221 10.372C106.997 10.5307 106.885 10.7313 106.885 10.974C106.895 11.1793 107.025 11.3613 107.277 11.52C107.539 11.6693 107.875 11.814 108.285 11.954C108.659 12.0847 109.018 12.2527 109.363 12.458C109.718 12.654 110.007 12.892 110.231 13.172C110.465 13.452 110.581 13.7787 110.581 14.152C110.581 14.7867 110.343 15.286 109.867 15.65C109.401 16.0047 108.719 16.182 107.823 16.182C107.637 16.182 107.403 16.1587 107.123 16.112C106.843 16.0653 106.563 15.9953 106.283 15.902C106.013 15.8087 105.779 15.6967 105.583 15.566Z" fill="white"/>
<path fill-rule="evenodd" clip-rule="evenodd" d="M7.42927 9.02743L7.92953 10.414C7.92953 10.414 13.5299 7.00205 15.5315 5.79218C18.1722 3.54916 15.8789 -0.0254078 13.3777 0.0013385C12.7724 -0.0157685 12.1741 0.131388 11.6492 0.426494C11.1242 0.7216 10.693 1.15313 10.4035 1.67324C9.44477 3.18205 10.3338 5.34431 11.1815 5.76386C11.2314 5.73316 11.4337 5.59184 11.6637 5.43105C11.9446 5.23481 12.2669 5.00958 12.4045 4.92109C11.1257 4.16013 10.8496 1.65856 13.2661 1.41417C15.1701 1.346 15.7261 3.83393 14.6559 4.70344C14.3085 4.90902 7.42927 9.02743 7.42927 9.02743ZM14.0727 7.51951L15.4207 6.74492C15.4207 6.74492 20.8683 10.7139 21.6468 11.1219C21.9144 11.2879 22.2213 11.3836 22.5377 11.3997C22.8542 11.4157 23.1696 11.3516 23.4533 11.2135C23.737 11.0755 23.9795 10.8681 24.1573 10.6115C24.3351 10.3549 24.4422 10.0578 24.4682 9.7489C24.5792 7.19332 21.0216 7.26149 20.6881 9.2596C20.4171 9.07604 20.2538 8.95372 20.0905 8.83139L20.0905 8.83137L20.0905 8.83136C19.9272 8.70905 19.764 8.58673 19.493 8.40319C20.2157 6.24198 22.9116 5.94305 24.3014 6.66311C24.8636 6.9521 25.3242 7.39927 25.624 7.94689C25.9237 8.49452 26.0487 9.11745 25.9829 9.73526C25.6773 12.5352 22.8419 13.6229 21.0355 12.4539C20.1042 11.8283 14.0727 7.51951 14.0727 7.51951ZM19.3678 12.3579L18.1727 11.4879C18.1727 11.4879 15.5599 18.6648 15.281 19.4279C14.9486 20.964 15.9213 23.4765 18.659 23.4241C19.4468 23.365 20.1926 23.0532 20.7806 22.537C21.3686 22.0209 21.766 21.3293 21.9109 20.5696C21.9771 19.6995 21.7023 18.8374 21.1422 18.1583C20.5822 17.4792 19.7789 17.034 18.8954 16.9132C18.8508 17.024 18.8129 17.115 18.777 17.2012L18.7767 17.2019L18.7766 17.202L18.7766 17.202C18.6674 17.4642 18.5762 17.6832 18.3673 18.2862C21.119 18.3407 21.105 21.9022 18.5341 22.0516C18.2406 22.0513 17.9512 21.9854 17.6878 21.8589C17.4244 21.7324 17.194 21.5487 17.0143 21.3218C16.8347 21.0949 16.7104 20.8308 16.6511 20.5497C16.5917 20.2686 16.5988 19.978 16.6719 19.7001C16.769 19.3854 19.3678 12.3579 19.3678 12.3579ZM14.7254 18.6229L15.2675 17.102C15.2675 17.102 7.63814 17.1156 6.52771 17.1156C3.74816 17.2378 2.9841 19.7934 3.41465 21.3158C5.08217 25.7736 10.9748 23.2038 9.83541 19.5218C9.3491 19.5081 8.55662 19.4945 8.33411 19.4945C8.7786 20.7453 8.12553 22.145 6.6387 22.1859C6.17509 22.1863 5.72828 22.0161 5.38699 21.7092C5.04569 21.4023 4.83488 20.9811 4.79639 20.5292C4.75791 20.0773 4.89457 19.6278 5.17924 19.2698C5.46392 18.9119 5.87579 18.6718 6.33308 18.5972C6.83227 18.6108 14.7254 18.6229 14.7254 18.6229ZM9.00004 16.4497H7.40169C7.40169 16.4497 5.13686 9.34044 4.98298 8.89257C4.79878 8.53539 4.50171 8.24585 4.13588 8.06696C3.77005 7.88806 3.35498 7.82936 2.95232 7.89956C2.54967 7.96976 2.1809 8.16513 1.9008 8.45665C1.6207 8.74816 1.44421 9.12027 1.39754 9.5177C1.38041 9.8852 1.47658 10.2493 1.67357 10.5627C1.87057 10.876 2.15929 11.1243 2.5023 11.2752C2.84531 11.4262 3.22678 11.4728 3.59722 11.4091C3.96766 11.3454 4.30998 11.1743 4.57977 10.918C4.62791 11.0892 4.66981 11.241 4.71495 11.4046C4.78747 11.6674 4.86837 11.9606 4.99692 12.4131C2.31602 13.8265 0.411508 12.0597 0.0640633 10.1837C-0.241559 8.4982 0.578261 7.41051 1.84311 6.63592C2.27282 6.43236 2.7424 6.32193 3.21975 6.31217C3.6971 6.30241 4.17099 6.39355 4.60902 6.57937C5.04706 6.76518 5.43892 7.0413 5.75784 7.38884C6.07677 7.73638 6.31523 8.14716 6.45694 8.59312C6.58187 9.01424 9.00004 16.4497 9.00004 16.4497Z" fill="#FBA919"/>
</svg>
