<svg width="21" height="21" viewBox="0 0 21 21" fill="none" xmlns="http://www.w3.org/2000/svg">
<g clip-path="url(#clip0_1_526)">
<path d="M7.95455 17.1818C8.48171 17.1818 8.90909 16.7544 8.90909 16.2273V11.7409H10.9614C13.1457 11.7409 14.9227 9.96386 14.9227 7.77954C14.9227 5.59522 13.1457 3.81818 10.9614 3.81818C10.9519 3.81818 10.9427 3.8183 10.9334 3.81856H7.95582C7.95537 3.81856 7.95499 3.81849 7.95455 3.81849C7.42738 3.81849 7 4.24588 7 4.77304V4.7731V10.7864V16.2273C7 16.7544 7.42738 17.1818 7.95455 17.1818ZM10.9614 5.72765C10.9691 5.72765 10.9768 5.72759 10.9845 5.72739C12.1055 5.73987 13.0136 6.65566 13.0136 7.77954C13.0136 8.91119 12.0929 9.83181 10.9614 9.83181H8.90909V5.72765H10.9614Z" fill="#888888"/>
<path d="M20.7204 0.279555C20.5414 0.100545 20.2986 0 20.0454 0L0.954482 0.00101818C0.427318 0.00108182 0 0.4284 0 0.955564V20.0455C0 20.5726 0.427382 21 0.954545 21H20.0455C20.5726 21 21 20.5726 21 20.0455V0.954545C21 0.701336 20.8995 0.458564 20.7204 0.279555ZM19.0909 19.0909H1.90909V1.91005L19.0909 1.90915V19.0909Z" fill="#888888"/>
</g>
<defs>
<clipPath id="clip0_1_526">
<rect width="21" height="21" fill="white"/>
</clipPath>
</defs>
</svg>
