<svg width="19" height="19" viewBox="0 0 19 19" fill="none" xmlns="http://www.w3.org/2000/svg">
<path d="M16.9831 6.31927C16.8512 6.26739 16.7107 6.24095 16.5689 6.24134H16.5541C15.8056 6.25247 14.9662 6.95347 14.5257 8.01368C13.9976 9.28208 14.2407 10.5798 15.0727 10.9134C15.2044 10.9653 15.3448 10.9917 15.4864 10.9913C16.2387 10.9913 17.0896 10.2863 17.5338 9.21899C18.0581 7.9506 17.8113 6.65288 16.9831 6.31927Z" stroke="#BBBBBB" stroke-width="1.3" stroke-miterlimit="10"/>
<path d="M12.155 11.2628C11.1234 9.55095 10.6781 8.9071 9.498 8.9071C8.31792 8.9071 7.8689 9.55503 6.83726 11.2628C5.95406 12.7234 4.1691 12.8452 3.72378 14.0857C3.63344 14.3129 3.58807 14.5556 3.59019 14.8001C3.59019 15.8091 4.36206 16.6259 5.31206 16.6259C6.49214 16.6259 8.09898 15.6836 9.50171 15.6836C10.9044 15.6836 12.5039 16.6259 13.6839 16.6259C14.6339 16.6259 15.4021 15.8094 15.4021 14.8001C15.403 14.5553 15.3563 14.3127 15.2648 14.0857C14.8195 12.8407 13.0382 12.7234 12.155 11.2628Z" stroke="#BBBBBB" stroke-width="1.6" stroke-miterlimit="10"/>
<path d="M7.14165 7.27563C7.19134 7.27568 7.24096 7.27195 7.29009 7.2645C8.15139 7.13944 8.68911 5.94601 8.49391 4.59819C8.31022 3.32757 7.53909 2.3772 6.7327 2.3772C6.68301 2.37716 6.63339 2.38088 6.58427 2.38833C5.72296 2.51339 5.18524 3.70683 5.38044 5.05464C5.56413 6.32155 6.33526 7.27563 7.14165 7.27563Z" stroke="#BBBBBB" stroke-width="1.3" stroke-miterlimit="10"/>
<path d="M13.6124 5.05464C13.8076 3.70683 13.2699 2.51339 12.4085 2.38833C12.3594 2.38088 12.3098 2.37716 12.2601 2.3772C11.4537 2.3772 10.6841 3.32757 10.5 4.59819C10.3048 5.94601 10.8425 7.13944 11.7038 7.2645C11.753 7.27195 11.8026 7.27568 11.8523 7.27563C12.6587 7.27563 13.4298 6.32155 13.6124 5.05464Z" stroke="#BBBBBB" stroke-width="1.3" stroke-miterlimit="10"/>
<path d="M3.92435 10.9134C4.75523 10.5794 4.99792 9.28059 4.4706 8.01368C4.02677 6.94642 3.1766 6.24134 2.4255 6.24134C2.28389 6.24095 2.1435 6.26739 2.01173 6.31927C1.18085 6.65325 0.938158 7.95208 1.46548 9.21899C1.90931 10.2863 2.75949 10.9913 3.51058 10.9913C3.65219 10.9917 3.79259 10.9653 3.92435 10.9134V10.9134Z" stroke="#BBBBBB" stroke-width="1.3" stroke-miterlimit="10"/>
</svg>
