<svg width="17" height="17" viewBox="0 0 17 17" fill="none" xmlns="http://www.w3.org/2000/svg">
<path d="M8.44356 7.65506C10.5538 7.65506 12.2711 5.93778 12.2711 3.82753C12.2711 1.71729 10.5538 0 8.44356 0C6.33331 0 4.61603 1.71729 4.61603 3.82753C4.61603 5.93778 6.33331 7.65506 8.44356 7.65506ZM8.44356 1.70113C9.61648 1.70113 10.57 2.65461 10.57 3.82753C10.57 5.00046 9.61648 5.95394 8.44356 5.95394C7.27148 5.95394 6.31715 5.00046 6.31715 3.82753C6.31715 2.65461 7.27148 1.70113 8.44356 1.70113Z" fill="#999999"/>
<path d="M16.7404 15.0439C15.8558 11.1483 12.4442 8.42822 8.44482 8.42822C4.44463 8.42822 1.03387 11.1492 0.150136 15.0439C0.0463676 15.5024 0.333007 15.9583 0.79146 16.062C1.24821 16.1641 1.70496 15.8783 1.80873 15.4207C2.51555 12.3059 5.24415 10.1293 8.44482 10.1293C11.6446 10.1293 14.3741 12.3059 15.0809 15.4215C15.1702 15.8162 15.5215 16.0833 15.9094 16.0833C15.9714 16.0833 16.0344 16.0765 16.099 16.0629C16.5566 15.9583 16.8441 15.5024 16.7404 15.0439Z" fill="#999999"/>
</svg>
