<svg width="40" height="40" viewBox="0 0 40 40" fill="none" xmlns="http://www.w3.org/2000/svg">
<circle cx="20" cy="20" r="20" fill="white" fill-opacity="0.2"/>
<circle cx="20" cy="20" r="19.5" stroke="white" stroke-opacity="0.06"/>
<path d="M25 21.6667C24.5076 21.6699 24.0221 21.7822 23.5783 21.9955C23.1346 22.2087 22.7435 22.5176 22.4333 22.9L18.1833 20.9417C18.3832 20.3298 18.3832 19.6702 18.1833 19.0583L22.4333 17.1C22.9347 17.705 23.6336 18.1134 24.4068 18.2532C25.18 18.393 25.9777 18.2552 26.6591 17.8641C27.3406 17.473 27.862 16.8537 28.1313 16.1156C28.4006 15.3775 28.4005 14.568 28.1311 13.8299C27.8616 13.0919 27.3401 12.4727 26.6586 12.0817C25.9771 11.6907 25.1793 11.5531 24.4062 11.693C23.6331 11.833 22.9342 12.2415 22.433 12.8466C21.9317 13.4516 21.6603 14.2143 21.6667 15C21.6692 15.1985 21.6887 15.3965 21.725 15.5917L17.325 17.6167C16.8559 17.158 16.2619 16.8479 15.6173 16.7254C14.9728 16.6028 14.3064 16.6731 13.7017 16.9276C13.097 17.1821 12.5808 17.6093 12.2178 18.1559C11.8549 18.7024 11.6613 19.3439 11.6613 20C11.6613 20.6561 11.8549 21.2976 12.2178 21.8441C12.5808 22.3906 13.097 22.8179 13.7017 23.0724C14.3064 23.3269 14.9728 23.3972 15.6173 23.2746C16.2619 23.1521 16.8559 22.842 17.325 22.3833L21.725 24.4083C21.6887 24.6035 21.6692 24.8015 21.6667 25C21.6667 25.6593 21.8622 26.3037 22.2284 26.8519C22.5947 27.4001 23.1153 27.8273 23.7244 28.0796C24.3335 28.3319 25.0037 28.3979 25.6503 28.2693C26.2969 28.1407 26.8909 27.8232 27.357 27.357C27.8232 26.8908 28.1407 26.2969 28.2693 25.6503C28.3979 25.0037 28.3319 24.3335 28.0796 23.7244C27.8273 23.1153 27.4001 22.5947 26.8519 22.2284C26.3037 21.8622 25.6593 21.6667 25 21.6667ZM25 13.3333C25.3296 13.3333 25.6519 13.4311 25.926 13.6142C26.2 13.7973 26.4137 14.0576 26.5398 14.3622C26.6659 14.6667 26.699 15.0018 26.6346 15.3251C26.5703 15.6484 26.4116 15.9454 26.1785 16.1785C25.9454 16.4116 25.6485 16.5703 25.3252 16.6346C25.0019 16.6989 24.6667 16.6659 24.3622 16.5398C24.0577 16.4136 23.7974 16.2 23.6142 15.9259C23.4311 15.6519 23.3333 15.3296 23.3333 15C23.3333 14.558 23.5089 14.134 23.8215 13.8215C24.1341 13.5089 24.558 13.3333 25 13.3333ZM15 21.6667C14.6704 21.6667 14.3481 21.5689 14.0741 21.3858C13.8 21.2026 13.5863 20.9423 13.4602 20.6378C13.3341 20.3333 13.3011 19.9981 13.3654 19.6748C13.4297 19.3515 13.5884 19.0546 13.8215 18.8215C14.0546 18.5884 14.3516 18.4297 14.6749 18.3654C14.9982 18.301 15.3333 18.334 15.6378 18.4602C15.9424 18.5863 16.2027 18.8 16.3858 19.074C16.5689 19.3481 16.6667 19.6704 16.6667 20C16.6667 20.442 16.4911 20.8659 16.1785 21.1785C15.866 21.4911 15.442 21.6667 15 21.6667ZM25 26.6667C24.6704 26.6667 24.3481 26.5689 24.0741 26.3858C23.8 26.2026 23.5864 25.9423 23.4602 25.6378C23.3341 25.3333 23.3011 24.9981 23.3654 24.6748C23.4297 24.3515 23.5884 24.0546 23.8215 23.8215C24.0546 23.5884 24.3516 23.4297 24.6749 23.3654C24.9982 23.301 25.3333 23.334 25.6378 23.4602C25.9424 23.5863 26.2027 23.8 26.3858 24.074C26.5689 24.3481 26.6667 24.6704 26.6667 25C26.6667 25.442 26.4911 25.8659 26.1785 26.1785C25.866 26.4911 25.442 26.6667 25 26.6667Z" fill="#CCCCCC"/>
</svg>
