<svg width="244" height="19" viewBox="0 0 244 19" fill="none" xmlns="http://www.w3.org/2000/svg">
<path d="M229.181 10.7213H232.691C232.373 11.6262 231.772 12.4047 230.977 12.9413C230.181 13.478 229.235 13.7444 228.276 13.7011C227.318 13.6578 226.399 13.3072 225.656 12.701C224.912 12.0948 224.384 11.2653 224.148 10.3354C223.913 9.40545 223.983 8.42444 224.349 7.53758C224.715 6.65072 225.356 5.90514 226.178 5.41121C227.001 4.91729 227.96 4.70126 228.915 4.79511C229.87 4.88896 230.769 5.2877 231.479 5.93231C231.568 6.01524 231.686 6.06132 231.808 6.06132C231.93 6.06132 232.048 6.01524 232.137 5.93231L233.427 4.7183C233.475 4.67326 233.512 4.619 233.538 4.55882C233.564 4.49864 233.578 4.43382 233.578 4.36831C233.578 4.30279 233.564 4.23797 233.538 4.17779C233.512 4.11761 233.475 4.06335 233.427 4.01831C232.129 2.7852 230.417 2.08244 228.627 2.04831C227.216 2.02016 225.827 2.40783 224.635 3.16304C223.442 3.91826 222.498 5.00763 221.92 6.29548C221.342 7.58334 221.156 9.01276 221.384 10.4057C221.613 11.7987 222.246 13.0936 223.206 14.1293C224.165 15.1649 225.407 15.8955 226.779 16.23C228.15 16.5645 229.59 16.4881 230.918 16.0104C232.246 15.5328 233.405 14.6749 234.249 13.5436C235.093 12.4123 235.586 11.0576 235.666 9.6483C235.672 9.6013 235.675 7.9973 235.675 7.9973H229.181C229.053 7.9973 228.931 8.04809 228.84 8.13848C228.75 8.22887 228.699 8.35147 228.699 8.47931V10.2463C228.701 10.3729 228.752 10.4937 228.843 10.5826C228.933 10.6715 229.054 10.7213 229.181 10.7213Z" fill="white"/>
<path d="M241.727 9.34697V7.71397C241.727 7.60789 241.685 7.50615 241.61 7.43114C241.535 7.35612 241.433 7.31396 241.327 7.31396H239.952C239.846 7.31396 239.744 7.35612 239.669 7.43114C239.594 7.50615 239.552 7.60789 239.552 7.71397V9.34697H237.92C237.814 9.34697 237.712 9.38911 237.637 9.46413C237.562 9.53914 237.52 9.64089 237.52 9.74698V11.122C237.52 11.2281 237.562 11.3298 237.637 11.4048C237.712 11.4798 237.814 11.522 237.92 11.522H239.553V13.155C239.553 13.2611 239.595 13.3628 239.67 13.4378C239.745 13.5128 239.847 13.555 239.953 13.555H241.328C241.434 13.555 241.536 13.5128 241.611 13.4378C241.686 13.3628 241.728 13.2611 241.728 13.155V11.522H243.36C243.466 11.522 243.568 11.4798 243.643 11.4048C243.718 11.3298 243.76 11.2281 243.76 11.122V9.74698C243.76 9.64089 243.718 9.53914 243.643 9.46413C243.568 9.38911 243.466 9.34697 243.36 9.34697H241.727Z" fill="white"/>
<path d="M126.732 16.412V10.401C126.732 7.44702 126.096 5.19002 122.649 5.19002C122.002 5.16342 121.36 5.3136 120.792 5.6244C120.225 5.9352 119.752 6.39487 119.426 6.95402H119.385V5.45402H116.126V16.412H119.532V10.975C119.532 9.53902 119.799 8.16402 121.563 8.16402C123.307 8.16402 123.327 9.78502 123.327 11.057V16.39H126.733L126.732 16.412Z" fill="white"/>
<path d="M110.587 5.45703H113.993V16.412H110.587V5.45703Z" fill="white"/>
<path d="M112.289 3.04006e-05C111.896 -0.00214436 111.512 0.112408 111.185 0.329134C110.858 0.54586 110.602 0.854979 110.451 1.21722C110.3 1.57947 110.259 1.97848 110.335 2.36359C110.412 2.74869 110.6 3.1025 110.878 3.38007C111.155 3.65764 111.509 3.84644 111.894 3.92249C112.279 3.99854 112.679 3.9584 113.041 3.80718C113.403 3.65595 113.712 3.40047 113.929 3.07318C114.146 2.74589 114.26 2.36157 114.258 1.96903C114.258 1.4469 114.05 0.946232 113.681 0.57703C113.312 0.207828 112.811 0.000295374 112.289 3.04006e-05Z" fill="white"/>
<path d="M162.299 3.13672H150.753C150.292 3.13659 149.835 3.22739 149.408 3.40394C148.982 3.58049 148.594 3.83932 148.268 4.16565C147.942 4.49198 147.683 4.87942 147.506 5.30581C147.33 5.73221 147.239 6.18922 147.239 6.65072V12.8977C147.239 13.3592 147.33 13.8162 147.506 14.2426C147.683 14.669 147.942 15.0565 148.268 15.3828C148.594 15.7091 148.982 15.968 149.408 16.1445C149.835 16.321 150.292 16.4119 150.753 16.4117H162.298C162.76 16.4119 163.217 16.321 163.643 16.1445C164.069 15.968 164.457 15.7091 164.783 15.3828C165.109 15.0565 165.368 14.669 165.545 14.2426C165.721 13.8162 165.812 13.3592 165.812 12.8977V6.65072C165.812 6.1893 165.721 5.73238 165.545 5.30605C165.368 4.87971 165.11 4.49232 164.783 4.16601C164.457 3.83969 164.07 3.58083 163.644 3.40423C163.217 3.22762 162.76 3.13672 162.299 3.13672ZM154.079 12.6257V6.92572L158.972 9.77872L154.079 12.6257Z" fill="white"/>
<path d="M194.984 0.445312C190.115 0.445312 187.522 3.56531 187.522 6.96731C187.522 8.54531 188.404 10.5123 189.815 11.1373C190.029 11.2373 190.146 11.1933 190.194 10.9943C190.236 10.8433 190.422 10.1163 190.512 9.77331C190.528 9.71971 190.529 9.6628 190.516 9.60847C190.503 9.55415 190.475 9.50438 190.436 9.46431C189.894 8.76052 189.598 7.89779 189.595 7.00931C189.608 6.36271 189.753 5.72552 190.019 5.13622C190.285 4.54691 190.669 4.01772 191.145 3.5806C191.622 3.14349 192.182 2.80751 192.792 2.59296C193.402 2.37841 194.05 2.28974 194.695 2.33231C197.471 2.33231 199.413 4.13231 199.413 6.71531C199.413 9.63031 197.871 11.6463 195.866 11.6463C195.616 11.6664 195.366 11.6272 195.134 11.532C194.903 11.4367 194.697 11.288 194.534 11.0981C194.371 10.9081 194.255 10.6823 194.195 10.4391C194.136 10.1958 194.135 9.94197 194.193 9.69831C194.61 8.53244 194.923 7.33214 195.13 6.11131C195.15 5.91499 195.127 5.71668 195.064 5.52979C195.001 5.3429 194.898 5.17181 194.763 5.02807C194.628 4.88433 194.463 4.77131 194.28 4.69665C194.098 4.62199 193.901 4.58743 193.704 4.59531C192.575 4.59531 191.659 5.71331 191.659 7.21431C191.652 7.76607 191.767 8.31251 191.997 8.81431C191.997 8.81431 190.88 13.3273 190.672 14.1693C190.482 15.4769 190.51 16.8068 190.754 18.1053C190.756 18.1292 190.766 18.1517 190.782 18.1698C190.797 18.188 190.818 18.2008 190.842 18.2067C190.865 18.2126 190.889 18.2112 190.912 18.2028C190.934 18.1943 190.953 18.1791 190.967 18.1593C191.739 17.097 192.359 15.9313 192.806 14.6963C192.944 14.1893 193.506 12.1313 193.506 12.1313C193.804 12.5324 194.196 12.8546 194.647 13.0698C195.099 13.285 195.595 13.3868 196.095 13.3663C199.495 13.3663 201.956 10.3763 201.956 6.66631C201.948 3.10731 198.903 0.445312 194.984 0.445312Z" fill="white"/>
<path d="M46.173 0.254883H38.892C37.4693 0.256471 36.1054 0.822326 35.0994 1.8283C34.0934 2.83428 33.5276 4.19822 33.526 5.62088V12.9019C33.5276 14.3245 34.0934 15.6885 35.0994 16.6945C36.1054 17.7004 37.4693 18.2663 38.892 18.2679H46.173C47.5957 18.2663 48.9596 17.7004 49.9656 16.6945C50.9716 15.6885 51.5374 14.3245 51.539 12.9019V5.62088C51.5374 4.19822 50.9716 2.83428 49.9656 1.8283C48.9596 0.822326 47.5957 0.256471 46.173 0.254883ZM49.726 12.9019C49.7257 13.8441 49.3513 14.7477 48.6851 15.4139C48.0188 16.0802 47.1152 16.4546 46.173 16.4549H38.892C37.9494 16.4549 37.0454 16.0804 36.3789 15.4139C35.7124 14.7474 35.338 13.8435 35.338 12.9009V5.62088C35.338 4.6783 35.7124 3.77433 36.3789 3.10783C37.0454 2.44132 37.9494 2.06688 38.892 2.06688H46.173C47.1154 2.06715 48.0191 2.4417 48.6854 3.10818C49.3517 3.77465 49.726 4.67848 49.726 5.62088V12.9019Z" fill="white"/>
<path d="M42.533 5.11279C41.7124 5.11279 40.9103 5.35613 40.228 5.81203C39.5457 6.26793 39.0139 6.91591 38.6999 7.67404C38.3858 8.43217 38.3037 9.2664 38.4638 10.0712C38.6238 10.8761 39.019 11.6153 39.5992 12.1956C40.1795 12.7758 40.9188 13.171 41.7236 13.3311C42.5284 13.4912 43.3627 13.409 44.1208 13.095C44.8789 12.7809 45.5269 12.2491 45.9828 11.5668C46.4387 10.8845 46.682 10.0824 46.682 9.2618C46.681 8.16174 46.2435 7.10704 45.4656 6.32918C44.6878 5.55132 43.6331 5.11385 42.533 5.11279ZM42.533 11.7968C42.0317 11.7968 41.5415 11.6481 41.1247 11.3696C40.7078 11.091 40.3829 10.6951 40.191 10.2319C39.9991 9.76869 39.9489 9.25898 40.0467 8.76724C40.1445 8.2755 40.386 7.82381 40.7405 7.46928C41.095 7.11476 41.5467 6.87331 42.0385 6.7755C42.5302 6.67768 43.0399 6.72789 43.5031 6.91975C43.9664 7.11162 44.3623 7.43655 44.6408 7.85342C44.9194 8.2703 45.068 8.76042 45.068 9.2618C45.068 9.93412 44.8009 10.5789 44.3255 11.0543C43.8501 11.5297 43.2054 11.7968 42.533 11.7968Z" fill="white"/>
<path d="M47.123 5.9608C47.8117 5.9608 48.37 5.4025 48.37 4.7138C48.37 4.0251 47.8117 3.4668 47.123 3.4668C46.4343 3.4668 45.876 4.0251 45.876 4.7138C45.876 5.4025 46.4343 5.9608 47.123 5.9608Z" fill="white"/>
<path d="M78.0589 17.3548C79.4861 17.3647 80.9011 17.0908 82.2215 16.5492C83.542 16.0076 84.7417 15.2089 85.7509 14.1997C86.7601 13.1905 87.5587 11.9909 88.1003 10.6704C88.6419 9.34994 88.9158 7.93502 88.9059 6.50782C88.9059 6.34315 88.9023 6.17882 88.8949 6.01482C89.6404 5.47475 90.2837 4.80633 90.7949 4.04082C90.0994 4.34918 89.3615 4.55143 88.6059 4.64082C89.4023 4.16479 89.9986 3.41566 90.2839 2.53282C89.5355 2.97668 88.7167 3.2895 87.8629 3.45782C87.5059 3.07796 87.0747 2.77545 86.596 2.56903C86.1173 2.36262 85.6013 2.25669 85.0799 2.25782C84.0697 2.25809 83.1009 2.65924 82.3862 3.37321C81.6714 4.08717 81.2693 5.05559 81.2679 6.06582C81.2678 6.35837 81.3013 6.64996 81.3679 6.93482C79.8519 6.85909 78.3688 6.46534 77.0148 5.77915C75.6609 5.09296 74.4664 4.12966 73.5089 2.95182C73.1703 3.53352 72.9922 4.19473 72.9929 4.86782C72.9928 5.49587 73.1479 6.11422 73.4445 6.66781C73.7411 7.22141 74.17 7.69308 74.6929 8.04082C74.0861 8.02335 73.4924 7.86008 72.9619 7.56482C72.9619 7.58082 72.9619 7.59682 72.9619 7.61382C72.9623 8.49391 73.2672 9.34677 73.8247 10.0277C74.3823 10.7087 75.1582 11.1758 76.0209 11.3498C75.6934 11.4389 75.3554 11.4839 75.0159 11.4838C74.7753 11.4836 74.5352 11.4605 74.2989 11.4148C74.5423 12.1724 75.0165 12.8349 75.655 13.3097C76.2935 13.7845 77.0644 14.0478 77.8599 14.0628C76.5095 15.1228 74.8417 15.6977 73.1249 15.6948C72.8212 15.695 72.5176 15.6773 72.2159 15.6418C73.9591 16.7621 75.9879 17.3567 78.0599 17.3548" fill="white"/>
<path d="M2.52 10.978H0.441C0.105 10.978 0 10.852 0 10.537V7.99603C0 7.66003 0.126 7.55503 0.441 7.55503H2.52V5.70703C2.49514 4.87974 2.69084 4.06073 3.087 3.33403C3.50331 2.60852 4.16669 2.05695 4.956 1.78003C5.47469 1.59441 6.02212 1.50199 6.573 1.50703H8.631C8.925 1.50703 9.051 1.63303 9.051 1.92703V4.32103C9.051 4.61503 8.925 4.74103 8.631 4.74103C8.064 4.74103 7.497 4.74103 6.931 4.76203C6.81392 4.74467 6.6944 4.75496 6.58202 4.79209C6.46963 4.82922 6.3675 4.89215 6.28381 4.97584C6.20012 5.05954 6.13719 5.16167 6.10006 5.27405C6.06293 5.38644 6.05264 5.50595 6.07 5.62303C6.049 6.25303 6.07 6.86203 6.07 7.51303H8.506C8.842 7.51303 8.968 7.63903 8.968 7.97503V10.516C8.968 10.852 8.863 10.957 8.506 10.957H6.069V17.807C6.069 18.164 5.969 18.29 5.586 18.29H2.961C2.646 18.29 2.52 18.164 2.52 17.849V10.978Z" fill="white"/>
</svg>
