<svg width="21" height="22" viewBox="0 0 21 22" fill="none" xmlns="http://www.w3.org/2000/svg">
<g clip-path="url(#clip0_1_428)">
<path d="M20.9447 8.55481C20.8065 8.12958 20.4293 7.82853 19.9848 7.78831L13.9228 7.23796L11.527 1.62898C11.3501 1.21689 10.9476 0.950928 10.4997 0.950928C10.0517 0.950928 9.64905 1.21689 9.47329 1.62898L7.07752 7.23796L1.01448 7.78831C0.570029 7.82933 0.193673 8.13038 0.0546019 8.55481C-0.0836679 8.98003 0.0440274 9.44643 0.380169 9.74124L4.96262 13.7594L3.61149 19.7103C3.51263 20.1478 3.68246 20.6003 4.04552 20.8627C4.24067 21.0045 4.46994 21.0754 4.70002 21.0754C4.89773 21.0754 5.0956 21.0228 5.27233 20.9171L10.4997 17.7915L15.726 20.9171C16.1094 21.1462 16.5915 21.1252 16.9538 20.8627C17.3169 20.6003 17.4867 20.1478 17.3878 19.7103L16.0367 13.7594L20.6192 9.74124C20.9551 9.44643 21.083 8.98099 20.9447 8.55481Z" fill="#FFB800"/>
</g>
<defs>
<clipPath id="clip0_1_428">
<rect width="21" height="21" fill="white" transform="translate(0 0.5)"/>
</clipPath>
</defs>
</svg>
