<svg width="162" height="44" viewBox="0 0 162 44" fill="none" xmlns="http://www.w3.org/2000/svg">
<g clip-path="url(#clip0_1_486)">
<path d="M35.1591 24.9197L33.5494 23.6009C32.5007 22.7417 30.8728 22.823 29.916 23.7797L29.8521 23.8436C29.6917 24.004 29.4304 24.0028 29.2722 23.8446L26.1622 20.7344C26.0052 20.5774 26.0021 20.3249 26.1534 20.1645C26.1561 20.1616 26.1589 20.1588 26.1618 20.1559L26.1532 20.1644C26.156 20.1616 26.1589 20.1587 26.1617 20.1559C27.1131 19.1953 27.2042 17.5599 26.3708 16.5062L25.0652 14.8557C24.2261 13.7947 22.7676 13.7127 21.811 14.6693L21.5712 14.9091C19.8721 16.6082 19.4716 19.6706 20.7461 21.7067C20.7461 21.7067 21.4963 23.4467 24.0281 25.9785C26.56 28.5104 28.2999 29.2607 28.2999 29.2607C30.355 30.5041 33.3974 30.1358 35.0961 28.4371L35.3245 28.2087C36.2818 27.2514 36.2071 25.7783 35.1591 24.9197ZM34.168 27.0522L33.9396 27.2806C32.7733 28.4468 30.5578 28.7152 29.1465 27.8613L29.0505 27.8032L28.9475 27.7588C28.821 27.7042 28.5039 27.5323 28.0245 27.2108C27.1731 26.6397 26.217 25.8545 25.1846 24.8221C24.1522 23.7897 23.367 22.8336 22.796 21.9822C22.4744 21.5028 22.3025 21.1857 22.248 21.0592L22.1986 20.9447L22.1324 20.839C21.2744 19.4682 21.5511 17.2423 22.7277 16.0657L22.9675 15.8259C23.2334 15.5599 23.5513 15.578 23.7825 15.8704L25.0881 17.5209C25.41 17.9279 25.3683 18.6365 24.9968 19.008C24.2064 19.8076 24.2103 21.0957 25.0057 21.891L28.1158 25.0011C28.913 25.7984 30.2099 25.7989 31.0087 25.0002L31.0726 24.9363C31.4352 24.5737 32.1149 24.5401 32.5129 24.8661L34.1226 26.1849C34.4231 26.4311 34.4407 26.7795 34.168 27.0522Z" fill="white"/>
</g>
<path d="M46.6521 21.424C46.6521 22.3413 46.8388 23.1627 47.2121 23.888C47.5854 24.6133 48.0921 25.184 48.7321 25.6C49.3828 26.0053 50.1241 26.208 50.9561 26.208C51.7881 26.208 52.5294 26 53.1801 25.584C53.8308 25.168 54.3374 24.5973 54.7001 23.872C55.0628 23.1467 55.2441 22.32 55.2441 21.392C55.2441 20.4853 55.0574 19.6853 54.6841 18.992C54.3214 18.288 53.8148 17.7387 53.1641 17.344C52.5241 16.9387 51.7881 16.736 50.9561 16.736C50.1241 16.736 49.3828 16.9387 48.7321 17.344C48.0921 17.7493 47.5854 18.304 47.2121 19.008C46.8388 19.712 46.6521 20.5173 46.6521 21.424ZM48.1241 21.376C48.1241 20.7253 48.2468 20.1547 48.4921 19.664C48.7374 19.1627 49.0734 18.768 49.5001 18.48C49.9268 18.192 50.4121 18.048 50.9561 18.048C51.5108 18.048 52.0014 18.1973 52.4281 18.496C52.8548 18.784 53.1854 19.184 53.4201 19.696C53.6654 20.208 53.7881 20.7947 53.7881 21.456C53.7881 22.1173 53.6654 22.7093 53.4201 23.232C53.1854 23.7547 52.8548 24.1653 52.4281 24.464C52.0014 24.752 51.5108 24.896 50.9561 24.896C50.4121 24.896 49.9268 24.7467 49.5001 24.448C49.0734 24.1387 48.7374 23.7227 48.4921 23.2C48.2468 22.6667 48.1241 22.0587 48.1241 21.376ZM59.847 15.712C59.1643 15.712 58.583 15.84 58.103 16.096C57.623 16.3413 57.255 16.672 56.999 17.088C56.7537 17.4933 56.631 17.936 56.631 18.416C56.631 18.9067 56.775 19.344 57.063 19.728C57.3617 20.1013 57.735 20.384 58.183 20.576C57.8417 20.6613 57.5163 20.8427 57.207 21.12C56.9083 21.3867 56.663 21.7013 56.471 22.064C56.2897 22.4267 56.199 22.7947 56.199 23.168C56.199 23.7227 56.3377 24.2293 56.615 24.688C56.903 25.1467 57.319 25.5147 57.863 25.792C58.407 26.0693 59.0683 26.208 59.847 26.208C60.6257 26.208 61.2817 26.0693 61.815 25.792C62.359 25.5147 62.7697 25.1467 63.047 24.688C63.335 24.2293 63.479 23.7227 63.479 23.168C63.479 22.7627 63.383 22.3787 63.191 22.016C63.0097 21.6533 62.7643 21.344 62.455 21.088C62.1563 20.832 61.8363 20.6613 61.495 20.576C61.7723 20.448 62.0283 20.2773 62.263 20.064C62.5083 19.8507 62.7003 19.6053 62.839 19.328C62.9883 19.04 63.063 18.736 63.063 18.416C63.063 17.936 62.935 17.4933 62.679 17.088C62.4337 16.672 62.071 16.3413 61.591 16.096C61.111 15.84 60.5297 15.712 59.847 15.712ZM59.815 16.96C60.391 16.96 60.8337 17.1093 61.143 17.408C61.463 17.696 61.623 18.0373 61.623 18.432C61.623 18.688 61.5537 18.928 61.415 19.152C61.287 19.376 61.0897 19.568 60.823 19.728C60.5563 19.8773 60.231 19.984 59.847 20.048C59.271 19.9627 58.8283 19.7707 58.519 19.472C58.2097 19.1733 58.055 18.8267 58.055 18.432C58.055 18.176 58.1243 17.936 58.263 17.712C58.4017 17.488 58.6043 17.3067 58.871 17.168C59.1377 17.0293 59.4523 16.96 59.815 16.96ZM59.847 21.168C60.5723 21.2747 61.1163 21.52 61.479 21.904C61.8523 22.2773 62.039 22.7093 62.039 23.2C62.039 23.5627 61.9377 23.8773 61.735 24.144C61.5323 24.4 61.2603 24.6027 60.919 24.752C60.5883 24.8907 60.231 24.96 59.847 24.96C59.4523 24.96 59.0843 24.8907 58.743 24.752C58.4123 24.6027 58.1457 24.4 57.943 24.144C57.7403 23.8773 57.639 23.5627 57.639 23.2C57.639 22.7093 57.8203 22.2773 58.183 21.904C58.5563 21.52 59.111 21.2747 59.847 21.168ZM64.4334 21.424C64.4334 22.3413 64.62 23.1627 64.9934 23.888C65.3667 24.6133 65.8734 25.184 66.5134 25.6C67.164 26.0053 67.9054 26.208 68.7374 26.208C69.5694 26.208 70.3107 26 70.9614 25.584C71.612 25.168 72.1187 24.5973 72.4814 23.872C72.844 23.1467 73.0254 22.32 73.0254 21.392C73.0254 20.4853 72.8387 19.6853 72.4654 18.992C72.1027 18.288 71.596 17.7387 70.9454 17.344C70.3054 16.9387 69.5694 16.736 68.7374 16.736C67.9054 16.736 67.164 16.9387 66.5134 17.344C65.8734 17.7493 65.3667 18.304 64.9934 19.008C64.62 19.712 64.4334 20.5173 64.4334 21.424ZM65.9054 21.376C65.9054 20.7253 66.028 20.1547 66.2734 19.664C66.5187 19.1627 66.8547 18.768 67.2814 18.48C67.708 18.192 68.1934 18.048 68.7374 18.048C69.292 18.048 69.7827 18.1973 70.2094 18.496C70.636 18.784 70.9667 19.184 71.2014 19.696C71.4467 20.208 71.5694 20.7947 71.5694 21.456C71.5694 22.1173 71.4467 22.7093 71.2014 23.232C70.9667 23.7547 70.636 24.1653 70.2094 24.464C69.7827 24.752 69.292 24.896 68.7374 24.896C68.1934 24.896 67.708 24.7467 67.2814 24.448C66.8547 24.1387 66.5187 23.7227 66.2734 23.2C66.028 22.6667 65.9054 22.0587 65.9054 21.376ZM74.6042 21.44L75.0042 22.512C75.2602 22.256 75.5322 22.016 75.8202 21.792C76.1082 21.568 76.4176 21.3867 76.7482 21.248C77.0789 21.1093 77.4256 21.04 77.7882 21.04C78.2256 21.04 78.5989 21.1253 78.9082 21.296C79.2282 21.456 79.4736 21.6853 79.6442 21.984C79.8256 22.2827 79.9162 22.6347 79.9162 23.04C79.9162 23.4027 79.8256 23.728 79.6442 24.016C79.4736 24.2933 79.2282 24.5173 78.9082 24.688C78.5989 24.848 78.2362 24.928 77.8202 24.928C77.3936 24.928 76.9989 24.816 76.6362 24.592C76.2842 24.3573 75.9962 24.0107 75.7722 23.552C75.5589 23.0827 75.4522 22.5067 75.4522 21.824C75.4522 21.216 75.5482 20.6773 75.7402 20.208C75.9429 19.728 76.2096 19.312 76.5402 18.96C76.8816 18.5973 77.2602 18.2933 77.6762 18.048C78.0922 17.792 78.5242 17.584 78.9722 17.424C79.4202 17.264 79.8522 17.1467 80.2682 17.072L79.9802 15.856C79.4682 15.92 78.9296 16.0533 78.3642 16.256C77.8096 16.4587 77.2709 16.7307 76.7482 17.072C76.2362 17.4133 75.7669 17.824 75.3402 18.304C74.9242 18.7733 74.5936 19.312 74.3482 19.92C74.1029 20.528 73.9802 21.2107 73.9802 21.968C73.9802 22.896 74.1509 23.6747 74.4922 24.304C74.8336 24.9333 75.2976 25.408 75.8842 25.728C76.4816 26.048 77.1482 26.208 77.8842 26.208C78.5562 26.208 79.1536 26.0693 79.6762 25.792C80.1989 25.5147 80.6042 25.1307 80.8922 24.64C81.1909 24.1493 81.3402 23.5893 81.3402 22.96C81.3402 22.3307 81.1909 21.7813 80.8922 21.312C80.6042 20.8427 80.1936 20.4747 79.6602 20.208C79.1376 19.9413 78.5296 19.808 77.8362 19.808C77.3669 19.808 76.9456 19.8827 76.5722 20.032C76.1989 20.1813 75.8522 20.3787 75.5322 20.624C75.2229 20.8693 74.9136 21.1413 74.6042 21.44ZM89.0287 21.504L88.6287 20.432C88.3834 20.688 88.1114 20.928 87.8127 21.152C87.5247 21.376 87.2154 21.5573 86.8847 21.696C86.5541 21.8347 86.2074 21.904 85.8447 21.904C85.4181 21.904 85.0447 21.824 84.7247 21.664C84.4047 21.4933 84.1541 21.2587 83.9727 20.96C83.8021 20.6613 83.7167 20.3093 83.7167 19.904C83.7167 19.5413 83.8021 19.2213 83.9727 18.944C84.1541 18.656 84.4047 18.432 84.7247 18.272C85.0447 18.1013 85.4074 18.016 85.8127 18.016C86.2394 18.016 86.6287 18.1333 86.9807 18.368C87.3434 18.592 87.6314 18.9333 87.8447 19.392C88.0687 19.8507 88.1807 20.432 88.1807 21.136C88.1807 21.7333 88.0794 22.272 87.8767 22.752C87.6847 23.2213 87.4181 23.6373 87.0767 24C86.7461 24.352 86.3727 24.656 85.9567 24.912C85.5407 25.1573 85.1034 25.36 84.6447 25.52C84.1967 25.6693 83.7701 25.7867 83.3647 25.872L83.6527 27.088C84.1647 27.024 84.6981 26.8907 85.2527 26.688C85.8181 26.4853 86.3567 26.2133 86.8687 25.872C87.3914 25.5307 87.8607 25.1253 88.2767 24.656C88.7034 24.176 89.0394 23.632 89.2847 23.024C89.5301 22.4053 89.6527 21.7227 89.6527 20.976C89.6527 20.0373 89.4821 19.2587 89.1407 18.64C88.7994 18.0107 88.3354 17.536 87.7487 17.216C87.1621 16.896 86.4954 16.736 85.7487 16.736C85.0767 16.736 84.4794 16.8747 83.9567 17.152C83.4447 17.4293 83.0394 17.8133 82.7407 18.304C82.4421 18.7947 82.2927 19.3547 82.2927 19.984C82.2927 20.6027 82.4367 21.152 82.7247 21.632C83.0234 22.1013 83.4341 22.4693 83.9567 22.736C84.4901 23.0027 85.1034 23.136 85.7967 23.136C86.2767 23.136 86.6981 23.0613 87.0607 22.912C87.4341 22.7627 87.7754 22.5653 88.0847 22.32C88.3941 22.0747 88.7087 21.8027 89.0287 21.504ZM94.2052 26V16.944H93.1812L90.2852 18.352L90.9892 19.568L92.6692 18.672V26H94.2052ZM96.4324 21.44L96.8324 22.512C97.0884 22.256 97.3604 22.016 97.6484 21.792C97.9364 21.568 98.2457 21.3867 98.5764 21.248C98.907 21.1093 99.2537 21.04 99.6164 21.04C100.054 21.04 100.427 21.1253 100.736 21.296C101.056 21.456 101.302 21.6853 101.472 21.984C101.654 22.2827 101.744 22.6347 101.744 23.04C101.744 23.4027 101.654 23.728 101.472 24.016C101.302 24.2933 101.056 24.5173 100.736 24.688C100.427 24.848 100.064 24.928 99.6484 24.928C99.2217 24.928 98.827 24.816 98.4644 24.592C98.1124 24.3573 97.8244 24.0107 97.6004 23.552C97.387 23.0827 97.2804 22.5067 97.2804 21.824C97.2804 21.216 97.3764 20.6773 97.5684 20.208C97.771 19.728 98.0377 19.312 98.3684 18.96C98.7097 18.5973 99.0884 18.2933 99.5044 18.048C99.9204 17.792 100.352 17.584 100.8 17.424C101.248 17.264 101.68 17.1467 102.096 17.072L101.808 15.856C101.296 15.92 100.758 16.0533 100.192 16.256C99.6377 16.4587 99.099 16.7307 98.5764 17.072C98.0644 17.4133 97.595 17.824 97.1684 18.304C96.7524 18.7733 96.4217 19.312 96.1764 19.92C95.931 20.528 95.8084 21.2107 95.8084 21.968C95.8084 22.896 95.979 23.6747 96.3204 24.304C96.6617 24.9333 97.1257 25.408 97.7124 25.728C98.3097 26.048 98.9764 26.208 99.7124 26.208C100.384 26.208 100.982 26.0693 101.504 25.792C102.027 25.5147 102.432 25.1307 102.72 24.64C103.019 24.1493 103.168 23.5893 103.168 22.96C103.168 22.3307 103.019 21.7813 102.72 21.312C102.432 20.8427 102.022 20.4747 101.488 20.208C100.966 19.9413 100.358 19.808 99.6644 19.808C99.195 19.808 98.7737 19.8827 98.4004 20.032C98.027 20.1813 97.6804 20.3787 97.3604 20.624C97.051 20.8693 96.7417 21.1413 96.4324 21.44ZM104.121 21.424C104.121 22.3413 104.308 23.1627 104.681 23.888C105.054 24.6133 105.561 25.184 106.201 25.6C106.852 26.0053 107.593 26.208 108.425 26.208C109.257 26.208 109.998 26 110.649 25.584C111.3 25.168 111.806 24.5973 112.169 23.872C112.532 23.1467 112.713 22.32 112.713 21.392C112.713 20.4853 112.526 19.6853 112.153 18.992C111.79 18.288 111.284 17.7387 110.633 17.344C109.993 16.9387 109.257 16.736 108.425 16.736C107.593 16.736 106.852 16.9387 106.201 17.344C105.561 17.7493 105.054 18.304 104.681 19.008C104.308 19.712 104.121 20.5173 104.121 21.424ZM105.593 21.376C105.593 20.7253 105.716 20.1547 105.961 19.664C106.206 19.1627 106.542 18.768 106.969 18.48C107.396 18.192 107.881 18.048 108.425 18.048C108.98 18.048 109.47 18.1973 109.897 18.496C110.324 18.784 110.654 19.184 110.889 19.696C111.134 20.208 111.257 20.7947 111.257 21.456C111.257 22.1173 111.134 22.7093 110.889 23.232C110.654 23.7547 110.324 24.1653 109.897 24.464C109.47 24.752 108.98 24.896 108.425 24.896C107.881 24.896 107.396 24.7467 106.969 24.448C106.542 24.1387 106.206 23.7227 105.961 23.2C105.716 22.6667 105.593 22.0587 105.593 21.376ZM113.668 21.424C113.668 22.3413 113.854 23.1627 114.228 23.888C114.601 24.6133 115.108 25.184 115.748 25.6C116.398 26.0053 117.14 26.208 117.972 26.208C118.804 26.208 119.545 26 120.196 25.584C120.846 25.168 121.353 24.5973 121.716 23.872C122.078 23.1467 122.26 22.32 122.26 21.392C122.26 20.4853 122.073 19.6853 121.7 18.992C121.337 18.288 120.83 17.7387 120.18 17.344C119.54 16.9387 118.804 16.736 117.972 16.736C117.14 16.736 116.398 16.9387 115.748 17.344C115.108 17.7493 114.601 18.304 114.228 19.008C113.854 19.712 113.668 20.5173 113.668 21.424ZM115.14 21.376C115.14 20.7253 115.262 20.1547 115.508 19.664C115.753 19.1627 116.089 18.768 116.516 18.48C116.942 18.192 117.428 18.048 117.972 18.048C118.526 18.048 119.017 18.1973 119.444 18.496C119.87 18.784 120.201 19.184 120.436 19.696C120.681 20.208 120.804 20.7947 120.804 21.456C120.804 22.1173 120.681 22.7093 120.436 23.232C120.201 23.7547 119.87 24.1653 119.444 24.464C119.017 24.752 118.526 24.896 117.972 24.896C117.428 24.896 116.942 24.7467 116.516 24.448C116.089 24.1387 115.753 23.7227 115.508 23.2C115.262 22.6667 115.14 22.0587 115.14 21.376ZM123.215 21.424C123.215 22.3413 123.401 23.1627 123.775 23.888C124.148 24.6133 124.655 25.184 125.295 25.6C125.945 26.0053 126.687 26.208 127.519 26.208C128.351 26.208 129.092 26 129.743 25.584C130.393 25.168 130.9 24.5973 131.263 23.872C131.625 23.1467 131.807 22.32 131.807 21.392C131.807 20.4853 131.62 19.6853 131.247 18.992C130.884 18.288 130.377 17.7387 129.727 17.344C129.087 16.9387 128.351 16.736 127.519 16.736C126.687 16.736 125.945 16.9387 125.295 17.344C124.655 17.7493 124.148 18.304 123.775 19.008C123.401 19.712 123.215 20.5173 123.215 21.424ZM124.687 21.376C124.687 20.7253 124.809 20.1547 125.055 19.664C125.3 19.1627 125.636 18.768 126.063 18.48C126.489 18.192 126.975 18.048 127.519 18.048C128.073 18.048 128.564 18.1973 128.991 18.496C129.417 18.784 129.748 19.184 129.983 19.696C130.228 20.208 130.351 20.7947 130.351 21.456C130.351 22.1173 130.228 22.7093 129.983 23.232C129.748 23.7547 129.417 24.1653 128.991 24.464C128.564 24.752 128.073 24.896 127.519 24.896C126.975 24.896 126.489 24.7467 126.063 24.448C125.636 24.1387 125.3 23.7227 125.055 23.2C124.809 22.6667 124.687 22.0587 124.687 21.376ZM132.761 21.424C132.761 22.3413 132.948 23.1627 133.321 23.888C133.695 24.6133 134.201 25.184 134.841 25.6C135.492 26.0053 136.233 26.208 137.065 26.208C137.897 26.208 138.639 26 139.289 25.584C139.94 25.168 140.447 24.5973 140.809 23.872C141.172 23.1467 141.353 22.32 141.353 21.392C141.353 20.4853 141.167 19.6853 140.793 18.992C140.431 18.288 139.924 17.7387 139.273 17.344C138.633 16.9387 137.897 16.736 137.065 16.736C136.233 16.736 135.492 16.9387 134.841 17.344C134.201 17.7493 133.695 18.304 133.321 19.008C132.948 19.712 132.761 20.5173 132.761 21.424ZM134.233 21.376C134.233 20.7253 134.356 20.1547 134.601 19.664C134.847 19.1627 135.183 18.768 135.609 18.48C136.036 18.192 136.521 18.048 137.065 18.048C137.62 18.048 138.111 18.1973 138.537 18.496C138.964 18.784 139.295 19.184 139.529 19.696C139.775 20.208 139.897 20.7947 139.897 21.456C139.897 22.1173 139.775 22.7093 139.529 23.232C139.295 23.7547 138.964 24.1653 138.537 24.464C138.111 24.752 137.62 24.896 137.065 24.896C136.521 24.896 136.036 24.7467 135.609 24.448C135.183 24.1387 134.847 23.7227 134.601 23.2C134.356 22.6667 134.233 22.0587 134.233 21.376Z" fill="white"/>
<defs>
<clipPath id="clip0_1_486">
<rect width="16" height="16" fill="white" transform="matrix(1 0 -1.46714e-05 1 20.0002 14)"/>
</clipPath>
</defs>
</svg>
